<svg xmlns="http://www.w3.org/2000/svg" viewBox="0 0 506.4 319.89"><defs><style>.cls-1{fill:#fefefe;}.cls-2{fill:#010101;}.cls-3{fill:#797979;}.cls-4{fill:#3b3b3b;}.cls-5{fill:#555;}.cls-6{fill:#c9c9c9;}.cls-7{fill:#373737;}.cls-8{fill:#8f8f8f;}.cls-9{fill:#747474;}.cls-10{fill:#202020;}.cls-11{fill:#101010;}.cls-12{fill:#404040;}.cls-13{fill:#fff;}.cls-14{fill:#fdfdfd;}.cls-15{fill:#e1e1e1;}.cls-16{fill:#505050;}.cls-17{fill:#a4a4a4;}.cls-18{fill:#ececec;}.cls-19{fill:#efefef;}.cls-20{fill:#d2d2d2;}.cls-21{fill:#848484;}.cls-22{fill:#dfdfdf;}.cls-23{fill:#afafaf;}</style></defs><g id="Layer_2" data-name="Layer 2"><g id="Layer_1-2" data-name="Layer 1"><path class="cls-1" d="M506.4,1.19v318.7H0V1.19A3.16,3.16,0,0,1,2.54.07C4,0,5.42,0,6.86,0H499.54c1.44,0,2.88,0,4.32.07A3.16,3.16,0,0,1,506.4,1.19Z"/><path d="M329.41,118.88c-4.79,9.61-8.33,19.7-11.6,29.9a315.65,315.65,0,0,0-9.14,35.45c-.83,4.22-1.76,8.43-2.58,12.66-.34,1.8-.52,3.63-.73,5.44a5.19,5.19,0,0,1-4.64,4.71h-.24c-1.3,0-2.9.84-3.81-.48-1.18-1.69-2-3.59-1.23-5.84,1.25-3.54,2.38-7.12,3.49-10.71a7,7,0,0,0,.59-3c-1.75.84-2.73,2.35-3.74,3.62-4.73,6-11,9.91-17.52,13.54a57.37,57.37,0,0,1-16.93,6.46c-7.65,1.5-13.62-1.25-18.58-6.82a60.27,60.27,0,0,1-5.91-8.44,3.06,3.06,0,0,0-3.75-1.64c-1.21.31-2.52.23-3.56,1.19a2.67,2.67,0,0,1-1.57.5c-5.31.27-10.6,1.06-15.89-.69a11.37,11.37,0,0,1-8-8.4,14,14,0,0,0-1.19-3.62,3.08,3.08,0,0,1-.37-1.37c-.18-4.3-.76-8.59-.51-12.91,0-.32.05-.64,0-1,0-1.47-.72-2.82-1.55-3s-2.77,1-3.24,2.07a5.86,5.86,0,0,0-.38,2.35c0,6.31-.07,12.63-.16,18.95a39.26,39.26,0,0,0,1.67,12.28,8.76,8.76,0,0,1-.12,5.63,3,3,0,0,1-2.57,2.19c-3.33.6-6.49.08-8.2-3-3.15-5.76-8.39-9.31-13.25-13.29-1.29-1.07-2.66-2.05-4-3.08a9.65,9.65,0,0,0-12.38-.12,26,26,0,0,0-9,15.17,5.31,5.31,0,0,1-5.78,4.46,7.28,7.28,0,0,1-6-5.2,7.93,7.93,0,0,1,3.72-8.3,2.9,2.9,0,0,0,1.72-1.85c.19-.56,0-.77-.56-.54-6.52,3.21-13,6.45-19.57,9.63A59.1,59.1,0,0,1,103,207.48c-3.35.37-6.69-.25-10-.5s-6.63-.86-10-1.24a15.63,15.63,0,0,1-11-6.47c-3.16-4.15-5.42-8.7-5.64-14a33.42,33.42,0,0,1,1.12-9,77.35,77.35,0,0,1,8.74-21.95c2.55-4.33,5-8.75,7.68-13A130.86,130.86,0,0,1,97.79,123c5-5.4,9.71-11,14.85-16.28a99,99,0,0,1,16.84-14.15A231.21,231.21,0,0,1,151.7,79.36c7.62-3.82,15.58-7,24.12-8.38a35.89,35.89,0,0,1,7.4,0,4.36,4.36,0,0,1,3.49,2.29,35.18,35.18,0,0,1,2.88,5.51,9.05,9.05,0,0,1,.41,6.53c-.5,1.38-.4,2.84-.75,4.23-.22.89.17,1.2,1.2,1.09a65,65,0,0,0,12.55-3c8.82-2.74,17.28-6.22,24.8-11.72a34.55,34.55,0,0,0,7-6.78c2.35-3,4.26-3,6.63,0,.95,1.2,1.94,2.28,2,4a5.83,5.83,0,0,1-1.53,4.61c-1.16,1.2-2.26,2.47-3.34,3.75a67.72,67.72,0,0,0-11.14,18.61,22.67,22.67,0,0,0-1.46,8.21c0,1.35-.24,2.7-.3,4-.24,5.38.94,10.63,1.5,15.94.44,4.2,1.13,8.37,1.71,12.55a3.86,3.86,0,0,0,1,2.66,10.16,10.16,0,0,0,1.47-3.75A64,64,0,0,1,238,124.36a24.48,24.48,0,0,1,3.52-4.83,20.71,20.71,0,0,0,2.92-4.09,18.75,18.75,0,0,1,5.05-6,65.92,65.92,0,0,0,7.17-6.71,15.14,15.14,0,0,1,4.88-3.39,38,38,0,0,0,5.2-2.45,6.35,6.35,0,0,1,3-.71c1.12-.06,2.23-.19,3.33-.26,2.83-.18,4.9,1.42,6.28,3.67a11.14,11.14,0,0,1,1.18,8.78c-.43,1.69-.13,2.1,1.55,1.68a55.33,55.33,0,0,1,9.93-1.29c7.64-.47,13.37,2.84,18.06,8.52a50.51,50.51,0,0,1,5.15,8.06c.3.55.42,1.21,1,1.57.71-.13.77-.77.95-1.25,3.06-7.91,6.83-15.49,10.64-23.05a80,80,0,0,0,4.89-11.19c.79-2.46,2.16-3.38,5.25-2.52a6.37,6.37,0,0,1,4.37,7.94c-1.57,4.74-2.06,9.67-2.78,14.54s-1.46,9.9-2.58,14.82a146.27,146.27,0,0,0-2.46,18.23c-.11,1.17-.65,2.33-.26,3.55.85,0,1-.74,1.24-1.28,7.87-17.34,17.17-33.91,26.87-50.27,2-3.3,4-6.52,6.12-9.74,1.62-2.51,3.92-2.72,6.34-1a6.11,6.11,0,0,1,2.37,7c-1.87,7.11-2.8,14.42-4.8,21.49-.61,2.15-1.19,4.3-1.76,6.46a1.45,1.45,0,0,0,.21,1.5c1.22-.88,2.45-1.73,3.65-2.62a104.3,104.3,0,0,1,19.16-11.77c4-1.81,8.05-3.51,12.07-5.26a12,12,0,0,0,4.17-2.71c1.43-1.54,3.53-1.71,5.49-2,.82-.13,1.28.5,1.68,1.14,1.12,1.82,1.36,3.9,1.77,5.93a1.75,1.75,0,0,1-.31,1.12,15,15,0,0,0-1.11,7.67c.24,3.07,1.08,6.16.24,9.27-.17.61-.32,1.23-.52,1.84s-.49,1.28-1.26,1.24a1.65,1.65,0,0,1-1.54-1.32,8.41,8.41,0,0,1-.18-2.13c0-3.76.11-7.52.14-11.27a3.71,3.71,0,0,0-.34-2.4c-16.89,4.82-31.29,13.86-44,25.86.52.68,1.1.43,1.61.39,5.48-.48,10.95-1.22,16.43-1.39,7.59-.25,15.2-.06,22.79-.09,4.14,0,8.28.21,12.32-1.16,3.06-1,4.19-.42,5.81,2.51a8.74,8.74,0,0,1,1.23,5,4.94,4.94,0,0,1-4.6,4.71c-9.29.19-18.06,3-27,5.08-5.77,1.34-11.45,2.92-16.71,5.74-3,1.59-5.68,3.58-8.57,5.28-1.83,1.07-1.89,1.39-.89,3.23a51.52,51.52,0,0,0,6.71,9.6,55.84,55.84,0,0,0,13.37,11.19,26.82,26.82,0,0,0,18.85,3.66c5.61-1,11.13-2.18,16-5.25,2.83-1.77,5.22-3.92,6.32-7.25.86-2.58,0-4.32-2.71-5-2-.46-4.06-.85-6.11-1.15a53.22,53.22,0,0,0-17.13.18,10,10,0,0,0-4.57,2,16.07,16.07,0,0,1-3.29,2,5.16,5.16,0,0,1-7.24-4.93c0-.8.08-1.6.08-2.4-.05-4.79,3.6-6.28,6.73-5.94a52.46,52.46,0,0,0,10.72-.37,86.41,86.41,0,0,1,19.09.42,20.54,20.54,0,0,1,6.93,1.73,12.6,12.6,0,0,1,7,8.63,8.3,8.3,0,0,1-.76,5.8,48.85,48.85,0,0,1-5.65,9.17,24.53,24.53,0,0,1-9.44,7.18,55.4,55.4,0,0,1-16,4.63C401.6,199.06,393,196.31,385,191a62.43,62.43,0,0,1-13.54-12.77c-1.6-1.94-3.25-3.85-4.84-5.73-.46.22-.48.46-.47.69a81.65,81.65,0,0,0,1.32,11.87,7.83,7.83,0,0,0,.92,2.45,5.08,5.08,0,0,1-1.25,6.8c-.63.49-1.3.92-1.9,1.45a2.78,2.78,0,0,1-2.68.68c-3.22-1-6.36-.07-9.5.3-4.19.5-8.4.79-12.61,1.15a31,31,0,0,0-8.43,1.55,29,29,0,0,0-6,2.52c-3,1.93-7.74.67-8.72-4.93a13.88,13.88,0,0,1,.44-5.69c.08-.3.19-.71.41-.82,2-1.06,3.95-2.61,6.46-1.53a13.41,13.41,0,0,0,7.06.75c4.52-.53,9.06-.59,13.59-1a65.26,65.26,0,0,0,10.4-1.55c2.66-.64,3.23-1.37,3-4-1.09-10.93-.54-21.88-.44-32.82,0-.48,0-1,0-1.44,0-.88-.27-1.22-1.27-1.22a5.68,5.68,0,0,1-5.68-4.19,7.87,7.87,0,0,1,2.35-8.73c1.56-1.39,2.83-3.21,5.06-3.85a3.45,3.45,0,0,0,2.15-2.73c1.43-6,3-11.91,4.14-18,.12-.52,0-.84-.61-.64-2.32,3.07-3.88,6.59-5.68,10-4.87,9.07-9.67,18.17-14.3,27.36-3.19,6.34-6.05,12.84-9,19.28A11.88,11.88,0,0,0,334,172.5c.4,4.08-5.05,7.44-9.14,6.14a3.16,3.16,0,0,1-2-1.6c-.92-2-1.58-4-.65-6.39a54.59,54.59,0,0,0,3.33-15.85,269.86,269.86,0,0,1,4.08-33.15,5.26,5.26,0,0,0,.06-2.84C329.53,118.63,329.44,118.66,329.41,118.88Z"/><path d="M243.32,248.46c.05,6.07,1.07,12.08.91,18.16a31.69,31.69,0,0,1-1.18,8.26c-.27.89-.37,2.12-1.56,2.11s-1.74-1-2.1-2a15,15,0,0,1-.72-6.37c.49-5.18.29-10.37.45-15.56a35,35,0,0,1,.24-3.81,25,25,0,0,0-.51-7.61c-.4-2.25-.64-2.33-3-2.25-3.94.14-6.05-2.58-5.9-5.48.26-4.81,2.85-8.43,8.87-7.23,3.53.7,7,1.47,10.66,1.17,4.53-.38,9.06-.76,13.59-1,7.64-.41,15.24-1.29,22.86-1.88,6.36-.49,12.75-.58,19.1-1.13,4.23-.37,8.46,0,12.68-.44,8.42-.86,16.89-.69,25.34-1,6.55-.26,13.1-.13,19.64-.22a21.76,21.76,0,0,0,7.53-1.19c1.81-.69,3.62-.33,5.44-.24a2,2,0,0,1,1.61.94c1.06,1.79,2.45,3.43,2.08,5.83-.27,1.83-.41,3.64-1.58,5.18a5.24,5.24,0,0,1-4,2.27c-2,.08-3.94.18-5.83-.8-2.31-1.19-5-1-7.47-1.5-4.1-.84-8.27-.6-12.42-.55-.8,0-1.6.12-2.39.12a191.13,191.13,0,0,0-25.31,1.35,13.57,13.57,0,0,1-1.91.09c-6.32-.15-12.62.33-18.91.56-5.16.19-10.33.64-15.49,1.09-6.74.6-13.47,1.43-20.24,1.76-5.81.28-11.62.79-17.44.74a1.82,1.82,0,0,0-2.12,1.69A51.6,51.6,0,0,0,243.32,248.46Z"/><path d="M297,253.12c-2.21,0-3.89,0-5.57,0a9.79,9.79,0,0,0-3.74.64c-3.31,1.24-5.79.47-7.51-2.22-1.92-3-1.4-5.93.74-8.54s4.31-2.55,6.93-1.33a14.63,14.63,0,0,0,5.82,1.1q8.83.31,17.64,1.17c2.77.28,5.56.39,8.34.62,7.62.63,15.23,1.3,22.85,1.9a69,69,0,0,0,7.87.46c1.26,0,2.38-.18,3.17-1.3a2.85,2.85,0,0,1,2.74-1.12,22.81,22.81,0,0,1,2.87.22,5.6,5.6,0,0,1,3.57,2.17c3.31,4.38,3.46,8,.33,12.51-1.5,2.15-6.35,3.08-8.77,1.66a3.36,3.36,0,0,1-.78-.56c-2.74-2.82-6.23-3.59-10-3.85-4.13-.28-8.25-.72-12.38-1-2-.17-2.07-.07-2.45,2-.78,4.08,0,8.11.34,12.14a31.72,31.72,0,0,1-.27,10.47,11.82,11.82,0,0,1-.74,2.27,1.72,1.72,0,0,1-3,.37,4.73,4.73,0,0,1-1-2.89q-.09-6.22.28-12.44a40.59,40.59,0,0,0-.19-9.54,11.64,11.64,0,0,0-.49-1.59,2.16,2.16,0,0,0-2.26-1.65c-5.49-.25-10.95-.93-16.46-1.15C302.07,253.42,299.28,253.35,297,253.12Z"/><path d="M47.26,129.64a1.37,1.37,0,0,1,.85-1c4.4-2.34,7.33-6.11,9.83-10.26.7-1.16,1.41-2.29,2.17-3.42a12.19,12.19,0,0,0,2.1-5,9.85,9.85,0,0,1,2.26-4.7A125.25,125.25,0,0,0,73,93.74c1.12-1.67,2.46-3.13,3.72-4.68.36-.45.69-1,1.49-.32.49.43,1.19-.19,1.78-.35,2.31-.65,3.91,0,4.88,2.21a7.3,7.3,0,0,1-.07,6.7,20.18,20.18,0,0,1-4.37,5.64,42.76,42.76,0,0,0-7.74,8.79c-1.76,2.76-3.68,5.42-5.63,8a63,63,0,0,0-6.53,10.59c-1.13,2.38-2.46,4.66-3.7,7a23.77,23.77,0,0,0-1.68,4,19.42,19.42,0,0,1-.84,2.24c-1.34,2.87-3.19,4-5.82,3.56a6.27,6.27,0,0,1-5.15-5.55c-.21-2.27.22-4.16,2.24-5.69,1.36-1,2.27-2.66,3.42-4,.76-.88.56-1.38-.51-1.7A6.74,6.74,0,0,1,47.26,129.64Z"/><path d="M70,125.46a6.67,6.67,0,0,1,1.54-2.34.55.55,0,0,1,.37-.24,1.36,1.36,0,0,0,.41-.22l.33-.38a8.08,8.08,0,0,1,1-1c.35-.27.58-.65.89-.94,0,0,.09-.1.06-.06s0,0,0,0l-.08.09c-.23.21-.42.43-.74.44l-.26-.11c.57-2,2-3.4,3.16-5,.52-.7,1.15-1.32,1.73-2,.44-.49.75-.92,1.5-.19.38.37,1.17-.19,1.77-.36,2.31-.64,3.62-.08,4.7,2.08a6.94,6.94,0,0,1,0,6.86,19.15,19.15,0,0,1-4.22,5.46,40.68,40.68,0,0,0-7.62,8.57q-3,4.74-6.47,9.22a52.5,52.5,0,0,0-5.52,9c-1.29,2.66-2.71,5.26-4.13,7.85a42.87,42.87,0,0,0-2.06,4.84c-.14.37-.21.77-.36,1.14-1,2.53-3.06,4-5.21,3.9a6.53,6.53,0,0,1-5.69-4.77,5.87,5.87,0,0,1,2-6.6,35.63,35.63,0,0,0,4.13-4.84c-.6-1-1.89-.76-2.47-1.79a24.47,24.47,0,0,0,5.87-4.34A36,36,0,0,0,58,145.7c1.48-2.08,2.6-4.38,4.13-6.44a6.89,6.89,0,0,0,1.65-4.13c0-.95.75-1.9,1.16-2.85a4.7,4.7,0,0,1,.57-.25,2.08,2.08,0,0,0,.51-.37,12.64,12.64,0,0,0,3.45-4.61,3.37,3.37,0,0,1,.51-.74,1.13,1.13,0,0,0,.12-.57A2.74,2.74,0,0,0,70,125.46Z"/><path d="M447,147.37c0,.4,0,.8,0,1.2.06,1.84-.22,3.56-2.06,4.49-2.09,1.08-4.37,1.4-6.42.16a6.45,6.45,0,0,1-3.27-5.48c-.27-4.56.12-9.16-.85-13.7s-1.63-8.93-2.48-13.39a9.2,9.2,0,0,0-1.13-2.88,13,13,0,0,1-1.71-6.4,6.4,6.4,0,0,1,4-5.64c2-.69,3.28-.24,4.57,1.44,2.14,2.79,2.69,6.08,3,9.44.41,5.18,1.68,10.2,2.76,15.26a56.64,56.64,0,0,0,3.21,11.25A10.51,10.51,0,0,1,447,147.37Z"/><path d="M279.7,93.91c-5.81.25-9-5.32-6.85-9.57a5.93,5.93,0,0,0,.55-1.58c.6-3.25,6.06-4.49,8.46-2,2.89,3,3.8,7.37,1.79,10.74C282.74,93,281.56,94.16,279.7,93.91Z"/><path class="cls-2" d="M250.65,89.55a8.24,8.24,0,0,1,1.8-4.86,4.64,4.64,0,0,1,8.1,1,21.53,21.53,0,0,1,.94,5.61,3.42,3.42,0,0,1-1,2.4c-1.63,2.15-3.7,2.55-6.45,1.83C251.63,95,250.62,93.19,250.65,89.55Z"/><path class="cls-3" d="M66.29,129.88c.32-.62.61-1.27,1.36-1.49a.42.42,0,0,1,.56-.11c.39,1-.3,1.61-.95,2.2a1,1,0,0,1-.64,0A2,2,0,0,1,66.29,129.88Z"/><path class="cls-4" d="M65.33,131.29a1.38,1.38,0,0,1,.66-1,.37.37,0,0,1,.56,0l.22,0c.31.8-.1,1.27-.77,1.6C65.59,131.9,65.42,131.63,65.33,131.29Z"/><path class="cls-5" d="M68.66,127.45c-.15-.73.28-1.14.84-1.47a1,1,0,0,1,.52-.16.56.56,0,0,1,.29.45,1.09,1.09,0,0,1-.29.48c-.33.31-.5.86-1.09.83Z"/><path class="cls-6" d="M364.3,109.66a1.24,1.24,0,0,1,.85-1.06,1.4,1.4,0,0,1-.24,1.7Z"/><path class="cls-7" d="M65.33,131.29l.49.58a.72.72,0,0,1,.24.5,1,1,0,0,1-.29.48.46.46,0,0,1-.5-.14l-.38-.43Z"/><path class="cls-8" d="M142.06,192.22c.2-.22.46-.43.71-.19s0,.51-.15.73Z"/><path class="cls-9" d="M72.07,122.2c.19-.45.32-.93.91-1l.2.24a.76.76,0,0,1-.54,1A.8.8,0,0,1,72.07,122.2Z"/><path class="cls-10" d="M72.07,122.2a1.2,1.2,0,0,0,.38,0,.65.65,0,0,1,0,1l0-.07a.33.33,0,0,1-.51,0h-.48Z"/><path class="cls-8" d="M329.41,118.88a.39.39,0,0,1,.41-.37c.05,0,.11.07.17.11l-.32.19-.11.09Z"/><path class="cls-11" d="M70,126H69.5a.63.63,0,0,1,.5-.52l.07,0c.11.12.14.23.08.33S70,126,70,126Z"/><path class="cls-12" d="M68.07,127.84c.1-.29.27-.46.59-.39l0,0c.21.38,0,.53-.34.63Z"/><path class="cls-12" d="M68.07,128.35a1.2,1.2,0,0,0-.42,0,.6.6,0,0,1,.42-.55l.12.1A.25.25,0,0,1,68.07,128.35Z"/><path class="cls-11" d="M66.55,130.29H66l.3-.41Z"/><path d="M73,121.19c0-.3.13-.51.48-.45l0,0a.32.32,0,0,1,.11.32c0,.11,0,.17-.08.17a.31.31,0,0,1-.48,0Z"/><path class="cls-13" d="M115.72,159.6c-.13,1.79-.52,3.47-2.09,4.62-.24.17-.58.64-.51.75.86,1.42-.4,2.3-.71,3.45a6.22,6.22,0,0,0,1,5c1.94,2.95,6.42,3.75,9.45,2a4.61,4.61,0,0,0,2.33-3.2c.35-2.23,1.17-4.53-.21-6.76a3,3,0,0,1-.12-2.35,82.33,82.33,0,0,1,2.46-8.5,6,6,0,0,1,3.57-3.6,76.18,76.18,0,0,1,14.89-4.37c5.63-1.1,11.12-.1,16.64.65a4,4,0,0,1,2.16,1c1.31,1.17,2.66,2.3,3.88,3.56a4.35,4.35,0,0,1,1.13,4.39,11.34,11.34,0,0,1-2.9,5.38,145.65,145.65,0,0,1-27.92,22.1c-5,3.15-10.46,5.48-15.79,8-4.1,2-8.18,3.94-12.67,5a44.47,44.47,0,0,1-14.5.71,60.18,60.18,0,0,0-6.43-.42,20.24,20.24,0,0,1-5-.66c-5.58-1.36-7.9-5.59-9.05-10.67-.91-4,.23-7.91,1.24-11.76.69-2.62,1.49-5.22,2.28-7.81a10.18,10.18,0,0,1,.91-2.21c3.63-6.29,7-12.77,11-18.84a172.74,172.74,0,0,1,19.86-24.85c3.05-3.17,6.12-6.31,9.06-9.57a73.24,73.24,0,0,1,14.59-12,192.8,192.8,0,0,1,27.52-15c3.74-1.64,7.44-3.34,11.52-3.9,1.34-.19,2.7-.26,4.05-.33a1.76,1.76,0,0,1,1.83.91,10.61,10.61,0,0,1,1.35,5,2.09,2.09,0,0,1-2,2.25,4.71,4.71,0,0,0-3.61,2.82,9.28,9.28,0,0,0-1.24,7.08c.57,2.22-.83,4-2.28,5.53a12.43,12.43,0,0,1-6.1,4,6.71,6.71,0,0,0-3.52,2.39,4,4,0,0,1-.6.75c-2.91,2.16-3.31,5.27-3.33,8.55a5.08,5.08,0,0,0,7.46,4.63c1.73-.87,2.79-2.64,4.57-3.45.07,0,.17-.13.16-.17-.64-2.36,2.15-3.12,2.37-5.08.81-.07.7.36.45.85-1.33,6.4-2.41,12.84-3.37,19.3,0,.24-.07.47-.1.71-.42,2.57-.92,3-3.53,2.43A88.78,88.78,0,0,0,155,136.2a35.77,35.77,0,0,0-10.19,1.1c-3.28.66-6.53,1.46-9.74,2.43a20.25,20.25,0,0,1-2,.38c-.42-1.38.36-2.37,1-3.31,1.19-1.79,2.59-3.44,3.79-5.23a6.22,6.22,0,0,0-1.85-9.15c-2.42-1.61-4.68-1-6.17,1.48a18,18,0,0,0-2.16,6c-.44,2.26-1.9,4.19-2.82,6.31s-2,4-3,6a12.13,12.13,0,0,1-4.62,5.06c-2.33,1.39-4.64,2.81-7,4.21a27.57,27.57,0,0,0-6.39,4.59,4.21,4.21,0,0,1-1.86,1.05c-3,1-5.09,6.2-4.15,9.06a8.06,8.06,0,0,0,6,4.95,4.54,4.54,0,0,0,4.9-3,37.56,37.56,0,0,1,1.68-3.71,9.85,9.85,0,0,1,4.74-4.87A.32.32,0,0,1,115.72,159.6Z"/><path class="cls-13" d="M238.08,172.08c.1-2.43-.68-4.9.43-7.3a3.45,3.45,0,0,1,1.17-1.65c2.24-1.56,2.65-3.35,1.52-5.82a9.05,9.05,0,0,0-2.91-3.75,1.64,1.64,0,0,1-.75-1.6,41.17,41.17,0,0,1,6.45-21,85.15,85.15,0,0,1,10.79-14c2.79-2.84,5.85-5.42,8.85-8,1.13-1,2.68-1.34,3.88-2.33a2.07,2.07,0,0,1,2.49,0c.88.64.56,1.59.25,2.41-.65,1.72-1.36,3.41-2.05,5.11a7.12,7.12,0,0,1-3.61,4.24c-2,.9-3.21,2.84-4.86,4.23A36.45,36.45,0,0,0,246.61,148a29.63,29.63,0,0,0,.49,9.71c1.28,5.33,4.49,9.29,8.38,12.84a18.85,18.85,0,0,1,2.12,2.26c.88,1.13,1.57,2.65,3,3,2.31.49,4.65,1.11,7.08.3a16,16,0,0,0,4.93-2.89,67.19,67.19,0,0,0,14.06-15.61,36.81,36.81,0,0,1,9.64-10.21,5.19,5.19,0,0,0,2.49-4.82c-.15-2.44-.81-4.74-2.91-6.3a4.58,4.58,0,0,0-5.35.52,11.72,11.72,0,0,0-4,5.57,22.31,22.31,0,0,1-3.42,6.56c-3.71,5.21-8,10-12.16,14.81-2.88,3.33-6.62,3.39-9.87.25a24,24,0,0,1-4.87-6.77,17,17,0,0,1-1.08-11c1.55-7.89,5.83-14.07,12.21-18.86a56.61,56.61,0,0,1,8-5.13c.91,2.25.63,4.5.39,6.63-.3,2.63,0,5.26-.29,7.88a3.63,3.63,0,0,0,.21,1.42,1.69,1.69,0,0,0,1.5,1.35c.93.08,1.24-.57,1.47-1.28a19.47,19.47,0,0,0,.42-8.52,26.8,26.8,0,0,1-.16-6.93c.34-2.4.47-2.62,2.88-3.12a69.46,69.46,0,0,1,10.66-1.41,12.33,12.33,0,0,1,10.61,4.52c2.74,3.24,5.28,6.61,6.22,10.91a23.21,23.21,0,0,1,.18,7.39c-.3,2.93-.67,5.86-1.09,8.78a57,57,0,0,1-4.32,13.66c-3.81,9.13-9.77,16.82-16.51,23.92-3.22,3.39-7.34,5.63-11.27,8.08a53.44,53.44,0,0,1-10.58,5,24.87,24.87,0,0,1-8.92,1.43,8.73,8.73,0,0,1-6.49-2.58,49.78,49.78,0,0,1-7.37-9.69,2.8,2.8,0,0,1,.45-3.64c2.06-2.46,4.53-4.5,6.67-6.87a6.07,6.07,0,0,0,1.47-6.18,22.6,22.6,0,0,0-1.43-3.54c-.81-1.66-4-2.59-6.1-2a9.21,9.21,0,0,0-5.47,4.61C238.4,172.4,238.24,172.41,238.08,172.08Z"/><path class="cls-13" d="M222.52,89.48a1.84,1.84,0,0,1-.29,2c-3.11,5-3.83,10.53-4.44,16.21-.79,7.25.41,14.31,1.29,21.42.44,3.48.8,7,1.11,10.45a36,36,0,0,0,2.5,10.19c.67,1.69.55,1.93-1.18,2.2-4.89.75-9.78,1.45-14.75.55-2.38-.43-4.77.2-7.15.34-2.64.16-2.39-.42-2.21-2.38a109.72,109.72,0,0,1,3-17.43,24.52,24.52,0,0,0,.65-2.79,15.88,15.88,0,0,1,2.58-6.62,7.12,7.12,0,0,0,.07-8.13c-2-3.29-7.42-3.26-9.51,0A8.52,8.52,0,0,0,193,122a19.7,19.7,0,0,1-.33,8,172.38,172.38,0,0,0-3.07,19.83c-.15,1.74-.45,3-2.49,3.79a5.74,5.74,0,0,0-3.13,4.82c-.13,2.34-1.16,3.32-3.29,3.57a6.29,6.29,0,0,0-.92.25c-2.09.49-2.41-.13-1.76-1.85a18.8,18.8,0,0,0,1.34-8.92c-.26-2.21-.58-4.42-1-6.61a44.52,44.52,0,0,1-.19-11.47c.27-3.25.08-6.53.77-9.76,1.33-6.24,2.53-12.51,3.76-18.77.15-.72.25-1.4,1-1.75a1.16,1.16,0,0,0,.62-.69c.24-1.93,1.67-1.94,3.13-2.15,9.63-1.39,18.73-4.61,27.75-8.08Z"/><path class="cls-13" d="M212.08,173.8c.35-3.16.55-6.34.66-9.52.07-1.83.71-2.73,2.47-3a46.61,46.61,0,0,1,10.68-.66c2,.17,2.87,1,3.06,3,.5,5.06.91,10.12,1.38,15.18.1,1,.3,2.05.44,3.07a1.77,1.77,0,0,1-1.46,2.3c-2.7.65-5.36,1.54-8.08,2.09s-4.84-.87-6.27-3C213.09,180.4,211.72,177.34,212.08,173.8Z"/><path class="cls-1" d="M188.24,169a138.17,138.17,0,0,1-.11,21.15,13.66,13.66,0,0,1-4.81-3.14,33.59,33.59,0,0,1-5.18-5.92c-.59-.8-.89-1.35.23-2.1a9.36,9.36,0,0,0,3.47-4.48C182.94,171.62,185.46,170.48,188.24,169Z"/><path class="cls-14" d="M388.77,143.25c-7.49,2.33-14.48,6-22.29,8.12a21,21,0,0,1,.43-4.64,2.08,2.08,0,0,1,1.89-1.59c2.2-.37,4.38-.8,6.59-1.1,3.54-.48,7.09-.89,10.65-1.29a22.72,22.72,0,0,1,2.61,0Z"/><path class="cls-15" d="M169.24,171.83a3.42,3.42,0,0,1,.17,2.51c-.77.12-1.58-.17-1.65-.81C167.68,172.73,168.53,172.29,169.24,171.83Z"/><path class="cls-16" d="M172.85,115.45l-.45-.85c0-.24,0-.49.27-.56s.42.11.46.35A1.24,1.24,0,0,1,172.85,115.45Z"/><path class="cls-17" d="M238.08,172.08a2.36,2.36,0,0,0,.46,0,1.15,1.15,0,0,1-.21,1A1.14,1.14,0,0,1,238.08,172.08Z"/><path class="cls-8" d="M115.72,159.6l-.54,0c.17-.26.41-.44.7-.28C116,159.38,115.91,159.56,115.72,159.6Z"/><path class="cls-18" d="M68.07,128.35a.44.44,0,0,0,.12-.41.51.51,0,0,0,.43-.51l1.44-1a.5.5,0,0,1,.1.72,19.88,19.88,0,0,1-3.91,5.6l-.22-.07c0-.14-.11-.28-.17-.42a2.58,2.58,0,0,1,0-.39l1-1.55Z"/><path class="cls-19" d="M73.42,121.18v-.48c.86-.24,1-1.29,1.88-1.57.27.17.28.37,0,.58a5.94,5.94,0,0,1-1.43,2h-.2a.45.45,0,0,1-.29-.28Z"/><path class="cls-20" d="M73,121.15a1.68,1.68,0,0,0,.45,0,.84.84,0,0,1,.24.14l.13.13a.65.65,0,0,1,.13.23c-.42.55-.56,1.38-1.44,1.48l0-1A1,1,0,0,0,73,121.15Z"/><path class="cls-21" d="M70,126l.08-.47c.28-.07.73-.27.82-.17.41.47,0,.84-.28,1.19a.67.67,0,0,1-.42-.46Z"/><path class="cls-19" d="M75.45,118.8c.1-.38.32-.79.71-.63s.17.52-.19.67C75.76,119.22,75.59,119.2,75.45,118.8Z"/><path class="cls-22" d="M70.19,126.06l.42.46-.45.63-.1-.72A.91.91,0,0,1,70.19,126.06Z"/><path class="cls-23" d="M65.27,132.71a1.28,1.28,0,0,1,.39,0,.79.79,0,0,1,.5-.22.39.39,0,0,1,.09.26C65.9,133.24,65.56,133.53,65.27,132.71Z"/><path class="cls-19" d="M75.45,118.8l.52,0a1.11,1.11,0,0,1-.62.87c0-.19,0-.39,0-.58A.28.28,0,0,1,75.45,118.8Z"/><path class="cls-1" d="M72,123.12l.51,0C72.39,123.59,72.21,123.45,72,123.12Z"/><path class="cls-13" d="M66.16,132.49l-.5.22.2-.45Z"/><path class="cls-13" d="M73.79,121.45l-.13-.13Z"/></g></g></svg>