<svg xmlns="http://www.w3.org/2000/svg" viewBox="0 0 506.4 287.13"><defs><style>.cls-1{fill:#fff;}.cls-2{fill:#fefefe;}.cls-3{fill:#d5d5d5;}.cls-4{fill:#8d8d8d;}.cls-5{fill:#363636;}.cls-6{fill:#a9a9a9;}.cls-7{fill:#c3c3c3;}.cls-8{fill:#8a8a8a;}.cls-9{fill:#6f6f6f;}.cls-10{fill:#dfdfdf;}.cls-11{fill:#efefef;}.cls-12{fill:#bfbfbf;}.cls-13{fill:#010101;}.cls-14{fill:#020202;}.cls-15{fill:#1d1d1d;}.cls-16{fill:#afafaf;}.cls-17{fill:#5b5b5b;}.cls-18{fill:#141414;}.cls-19{fill:#101010;}.cls-20{fill:#2c2c2c;}.cls-21{fill:#7a7a7a;}.cls-22{fill:#6a6a6a;}.cls-23{fill:#202020;}</style></defs><g id="Layer_2" data-name="Layer 2"><g id="Layer_1-2" data-name="Layer 1"><path d="M506.4,287.06c-1,0-1.92.07-2.87.07H2.87c-1,0-1.91-.05-2.87-.07V0H506.4Z"/><path class="cls-1" d="M142.06,181.43c-6.52,3.21-13,6.45-19.57,9.62A58.88,58.88,0,0,1,103,196.69c-3.35.37-6.69-.25-10-.5s-6.63-.86-10-1.24a15.65,15.65,0,0,1-11-6.47c-3.16-4.14-5.42-8.7-5.64-14a33.52,33.52,0,0,1,1.12-9,77.29,77.29,0,0,1,8.74-21.94c2.55-4.33,5-8.76,7.67-13a129.5,129.5,0,0,1,13.87-18.3c5-5.4,9.71-11,14.85-16.28a98.76,98.76,0,0,1,16.84-14.16A223.71,223.71,0,0,1,151.9,68.47c7.57-3.76,15.45-6.9,23.9-8.27a36.71,36.71,0,0,1,7.41,0,4.37,4.37,0,0,1,3.49,2.28A34.4,34.4,0,0,1,189.59,68a9.05,9.05,0,0,1,.41,6.53c-.5,1.38-.4,2.84-.75,4.23-.22.87.13,1.22,1.19,1.11a65.94,65.94,0,0,0,12.55-3c8.81-2.73,17.26-6.22,24.8-11.7a35.71,35.71,0,0,0,7.47-7.36c1.32-1.74,2.67-2.16,4.36-1.21a7.93,7.93,0,0,1,3.61,4.57,5.3,5.3,0,0,1-1,5.41c-1,1.12-1.94,2.34-3,3.43-4.79,5-7.84,11.06-11,17.07-1.49,2.84-1.92,6-2.29,9.24a69.92,69.92,0,0,0,.67,17.4q1.11,8.17,2.24,16.34a4.19,4.19,0,0,0,1,2.7,8.42,8.42,0,0,0,1.42-3.52,63,63,0,0,1,6-14.57,26.78,26.78,0,0,1,4.12-5.87,18.22,18.22,0,0,0,2.79-3.88,19.8,19.8,0,0,1,5.35-6.37,62,62,0,0,0,7-6.55,15.14,15.14,0,0,1,5.1-3.5,35.89,35.89,0,0,0,5-2.35,6.53,6.53,0,0,1,3.24-.72c1,0,2.06-.19,3.08-.26,2.84-.18,4.91,1.41,6.29,3.65a11.1,11.1,0,0,1,1.21,8.78c-.45,1.78-.14,2.16,1.74,1.67A34.38,34.38,0,0,1,293.18,98c3.48.22,7,.18,10.1,2.36a33.76,33.76,0,0,1,9.8,10.36c1.05,1.78,2,3.59,3,5.35.85-.08.91-.74,1.09-1.22,3.06-7.91,6.82-15.49,10.63-23a76.61,76.61,0,0,0,4.89-11.19c.7-2.21,2-3.59,5.46-2.47a6.41,6.41,0,0,1,4.14,8.06c-1.69,5.45-2.29,11.08-3,16.68-.53,4.2-1.41,8.31-2.31,12.44a157.16,157.16,0,0,0-2.46,18.23c-.11,1.17-.66,2.33-.23,3.65.9-.27,1.05-1.07,1.37-1.75,2.24-4.68,4.38-9.42,6.77-14,8-15.46,16.47-30.68,25.89-45.35,1.31-2,2.55-2.62,4.6-2.2,1.74.36,4.17,2.85,4.37,4.65a9.35,9.35,0,0,1-.06,3.34c-2,7.25-2.89,14.73-4.93,21.95-.5,1.77-.95,3.55-1.46,5.31a3.51,3.51,0,0,0-.1,2.34c1.32-1,2.54-1.81,3.73-2.7a103.81,103.81,0,0,1,18.93-11.68c4.07-1.85,8.19-3.58,12.29-5.36a11.62,11.62,0,0,0,4.17-2.7c1.43-1.56,3.54-1.7,5.48-2.07a1.56,1.56,0,0,1,1.58.9c1.28,1.92,1.53,4.17,1.93,6.36.08.4-.33.88-.5,1.32a15.35,15.35,0,0,0-1,7c.23,3.15,1.08,6.32.27,9.5-.18.7-.36,1.39-.59,2.07s-.49,1.06-1.15,1.07a1.74,1.74,0,0,1-1.49-1.06,4.25,4.25,0,0,1-.28-2.12c0-3.83.12-7.67.15-11.51a4.39,4.39,0,0,0-.31-2.46c-16.89,4.83-31.3,13.87-44.25,26.06a7.47,7.47,0,0,0,3.92.06c12.55-1.74,25.17-1.41,37.78-1.28,3.88,0,7.78,0,11.62-1.16s4.51-.12,5.83,2.41a9.13,9.13,0,0,1,1.24,5.27A4.92,4.92,0,0,1,425.6,134c-9.28.17-18.06,3-27,5.06-5.69,1.33-11.29,2.87-16.5,5.62-3.26,1.72-6.22,3.91-9.4,5.77-1.18.69-1.24,1.17-.46,2.61a50.23,50.23,0,0,0,4.82,7.43,56.48,56.48,0,0,0,15.55,13.72,26.69,26.69,0,0,0,18.87,3.55c5.53-1,11-2.18,15.82-5.19,2.9-1.81,5.34-4,6.44-7.45.73-2.26-.13-4.15-2.48-4.73a66.2,66.2,0,0,0-6.57-1.26,54.75,54.75,0,0,0-16.66.18,11,11,0,0,0-5,2.11,15.24,15.24,0,0,1-3.31,1.93,5.17,5.17,0,0,1-7.09-4.92c0-.88.08-1.76.09-2.63,0-4.48,3.28-6.07,6.66-5.78a65.32,65.32,0,0,0,11.2-.41,79.75,79.75,0,0,1,14.33,0,66.2,66.2,0,0,1,8,1.07,13.63,13.63,0,0,1,7.53,4.38,10,10,0,0,1,1.89,11.16,40.63,40.63,0,0,1-5.62,9.17,23.2,23.2,0,0,1-7.95,6.44,54.06,54.06,0,0,1-17.53,5.36c-9.69,1.13-18.27-1.65-26.27-7a62.43,62.43,0,0,1-13.54-12.77c-1.6-1.94-3.25-3.85-4.84-5.73-.45.24-.47.48-.46.71a81.65,81.65,0,0,0,1.32,11.87,7.85,7.85,0,0,0,.93,2.45,5.08,5.08,0,0,1-1.27,6.79,19.88,19.88,0,0,0-1.72,1.3,2.88,2.88,0,0,1-2.86.83c-3.22-1-6.36-.07-9.5.31-4.11.49-8.24.8-12.37,1.13a33.32,33.32,0,0,0-9.13,1.69,26.43,26.43,0,0,0-5.58,2.39c-3,1.94-7.74.66-8.71-4.94a13.71,13.71,0,0,1,.44-5.69c.08-.3.2-.7.42-.82,2-1.05,3.95-2.6,6.46-1.51a13.51,13.51,0,0,0,7.06.74c4.51-.52,9.06-.59,13.59-.94a66.13,66.13,0,0,0,10.39-1.56c2.66-.64,3.26-1.37,3-4-1.15-10.2-.37-20.44-.59-30.66,0-1.2.1-2.4.14-3.6,0-.87-.27-1.21-1.27-1.21a5.67,5.67,0,0,1-5.67-4.2,7.87,7.87,0,0,1,2.35-8.72c1.56-1.39,2.84-3.21,5.06-3.85a3.49,3.49,0,0,0,2.16-2.73c1.42-6,3-11.9,4.13-17.95.12-.52,0-.84-.61-.64-2.32,3.07-3.88,6.59-5.68,9.95-4.87,9.07-9.67,18.17-14.3,27.36-3.19,6.34-6.05,12.84-9,19.28a11.86,11.86,0,0,0-1.28,6.25c.4,4.09-5.06,7.44-9.14,6.14a3.26,3.26,0,0,1-2.13-1.81c-.82-2-1.42-3.88-.53-6.18A54.92,54.92,0,0,0,325.53,144a267.94,267.94,0,0,1,4.08-33.15,5.26,5.26,0,0,0,.06-2.84c-.14-.17-.23-.16-.25.07-4.8,9.61-8.33,19.7-11.61,29.9a313.47,313.47,0,0,0-9.13,35.45c-.84,4.22-1.77,8.43-2.58,12.66-.35,1.8-.53,3.62-.74,5.44a5.2,5.2,0,0,1-4.64,4.71h-.24c-1.3,0-2.9.84-3.81-.48-1.17-1.69-2-3.58-1.23-5.84,1.25-3.54,2.38-7.12,3.49-10.71a7,7,0,0,0,.59-3,12.54,12.54,0,0,0-3.91,3.82c-4.91,6.17-11.47,10.11-18.2,13.81a56.16,56.16,0,0,1-16.09,6c-7.64,1.51-13.61-1.25-18.57-6.82a60.27,60.27,0,0,1-5.91-8.44,3.05,3.05,0,0,0-3.75-1.64c-1.21.31-2.52.23-3.56,1.19a2.67,2.67,0,0,1-1.57.5c-5.31.27-10.6,1.05-15.89-.69a11.37,11.37,0,0,1-8-8.4,14,14,0,0,0-1.19-3.62,3.08,3.08,0,0,1-.37-1.37c-.18-4.3-.76-8.59-.51-12.91,0-.32.05-.64,0-1,0-1.47-.72-2.82-1.55-3s-2.77,1-3.24,2.07a5.86,5.86,0,0,0-.38,2.35c0,6.31-.07,12.63-.16,19a39.26,39.26,0,0,0,1.67,12.28,8.76,8.76,0,0,1-.12,5.63,3,3,0,0,1-2.57,2.19c-3.33.6-6.49.08-8.2-3-3.15-5.76-8.39-9.31-13.25-13.29-1.29-1.07-2.66-2-4-3.08a9.65,9.65,0,0,0-12.38-.12,26,26,0,0,0-9,15.17,5.31,5.31,0,0,1-5.78,4.46,7.28,7.28,0,0,1-6-5.2,7.93,7.93,0,0,1,3.72-8.3,2.9,2.9,0,0,0,1.72-1.85C142.81,181.41,142.65,181.2,142.06,181.43Z"/><path class="cls-1" d="M347.27,221.37h-.72A194.12,194.12,0,0,0,320,222.75a10.32,10.32,0,0,1-1.67.06c-6.31-.15-12.61.33-18.91.56-5.16.19-10.33.64-15.49,1.09-6.74.59-13.46,1.43-20.24,1.76-5.81.28-11.61.79-17.44.74a1.8,1.8,0,0,0-2.1,1.69,43.42,43.42,0,0,0-.83,9.51c.07,5.9,1,11.76.87,17.67a31.63,31.63,0,0,1-1.18,8.26c-.27.9-.37,2.13-1.56,2.11s-1.74-1-2.11-2a15.05,15.05,0,0,1-.71-6.38c.49-5.17.29-10.37.45-15.55a37.47,37.47,0,0,1,.24-3.81,25,25,0,0,0-.51-7.62c-.4-2.25-.63-2.3-3-2.24-3.85.11-5.93-2.35-5.88-5.25.1-5,2.8-8.59,8.64-7.51,3.62.67,7.17,1.52,10.89,1.22,4.53-.37,9-.76,13.59-1,7.64-.41,15.23-1.29,22.86-1.88,6.35-.49,12.74-.58,19.09-1.13,4.23-.37,8.47,0,12.68-.43,8.43-.87,16.9-.7,25.35-1,6.55-.26,13.09-.13,19.64-.21a22,22,0,0,0,7.52-1.2c1.82-.69,3.62-.33,5.44-.24a1.86,1.86,0,0,1,1.44.78c1.16,1.75,2.5,3.39,2.25,5.75-.2,1.85-.33,3.64-1.45,5.22a5.34,5.34,0,0,1-4.41,2.49,11.18,11.18,0,0,1-5.6-.81c-2.46-1.25-5.29-1.06-7.94-1.57C355.74,220.92,351.5,221.22,347.27,221.37Z"/><path class="cls-1" d="M296.94,242.33c-2.29,0-4,0-5.65,0a9.38,9.38,0,0,0-3.51.61c-3.4,1.27-6,.47-7.67-2.34-1.85-3.06-1.49-6,1-8.46a5,5,0,0,0,1-1,2.34,2.34,0,0,1,2.68-1.09,6.74,6.74,0,0,1,2.32.55c2.44,1.22,5,1.27,7.68,1.39,5.49.25,11,.76,16.44,1.16,3.1.23,6.2.44,9.3.71,6.58.56,13.15,1.26,19.74,1.7a95.09,95.09,0,0,0,10.27.56,3.35,3.35,0,0,0,2.94-1.24,3,3,0,0,1,3-1.17,22.49,22.49,0,0,1,3.08.33c3.5.82,6.35,5.64,5.63,9.44a12.48,12.48,0,0,1-2.4,5.43c-1.39,1.77-6.25,3-8.64,1.26a4.09,4.09,0,0,1-.58-.42c-3-3.12-6.87-3.68-10.93-3.92-3.81-.22-7.61-.69-11.42-1-2.11-.18-2.13-.09-2.51,1.88-.78,4.07-.05,8.1.33,12.14a32.83,32.83,0,0,1-.24,10.47,12.78,12.78,0,0,1-.73,2.27,1.73,1.73,0,0,1-3.17.29,4.44,4.44,0,0,1-.93-2.68c.06-4.15.1-8.3.27-12.45a47.53,47.53,0,0,0-.16-9.54,8.36,8.36,0,0,0-.68-2,1.82,1.82,0,0,0-1.8-1.25c-5.49-.25-10.95-.95-16.45-1.16C302.22,242.64,299.27,242.51,296.94,242.33Z"/><path class="cls-1" d="M85.5,83.19a5.7,5.7,0,0,1-.78,3.37,20.75,20.75,0,0,1-4.38,5.63A40.59,40.59,0,0,0,72.62,101c-1.81,2.92-3.83,5.7-5.92,8.43a53.12,53.12,0,0,0-6,9.78c-1.19,2.53-2.49,5-3.92,7.42a18.49,18.49,0,0,0-1.68,4,17.74,17.74,0,0,1-.84,2.24c-1.27,2.69-2.94,3.77-5.38,3.56a6,6,0,0,1-5.29-4.52c-.64-2.51-.51-4.75,1.82-6.66a14.55,14.55,0,0,0,5-7.65,4.42,4.42,0,0,1,1.55-2.31,30.67,30.67,0,0,0,6.53-8.52,22.78,22.78,0,0,1,1.31-2,13,13,0,0,0,2.44-5.32,10.19,10.19,0,0,1,2.35-4.91c3.17-3.72,5.83-7.81,8.62-11.8.37-.52.67-1.09,1.08-1.58C75.13,80,75.91,78.55,77.1,78s2.54-.31,3.84-.59a3.2,3.2,0,0,1,3.58,1.83A6.26,6.26,0,0,1,85.5,83.19Z"/><path class="cls-1" d="M73.46,110c.57-2,2-3.4,3.16-5,.52-.7,1.15-1.32,1.73-2,.44-.5.75-.92,1.5-.2.38.37,1.17-.19,1.77-.36,2.31-.64,3.62-.08,4.7,2.07a7,7,0,0,1,0,6.86,19.33,19.33,0,0,1-4.22,5.46,40.11,40.11,0,0,0-7.62,8.56q-3,4.74-6.47,9.22a52.75,52.75,0,0,0-5.52,9c-1.29,2.65-2.7,5.25-4.12,7.84a42.87,42.87,0,0,0-2.06,4.84c-.18.44-.29.92-.48,1.35-1.12,2.55-3.1,3.92-5.31,3.7a6.52,6.52,0,0,1-5.48-4.7c-.66-2.6-.27-4.75,2-6.62a36.07,36.07,0,0,0,4.21-4.91c-.64-.93-1.82-.8-2.59-1.68A26,26,0,0,0,54.58,139,38.11,38.11,0,0,0,57.92,135c1.49-2.07,2.57-4.4,4.14-6.44a6.53,6.53,0,0,0,1.68-4.35c0-.41.39-.85.61-1.27a1.55,1.55,0,0,0,1-.78c.16-.28.37-.53.55-.8,1.19-1.68,2.81-3.06,3.55-5a3.43,3.43,0,0,1,.51-.75,1.11,1.11,0,0,0,.12-.56,2.5,2.5,0,0,0,0-.29,6.54,6.54,0,0,1,1.54-2.33.53.53,0,0,1,.37-.25,1.2,1.2,0,0,0,.4-.22c.12-.12.23-.25.34-.38a7.33,7.33,0,0,1,1-1c.35-.28.58-.66.89-1l.06-.06s0,0,0,0l-.08.09c-.23.21-.42.43-.74.44Z"/><path class="cls-1" d="M445.53,131c-.36,3.64-.74,7-1,10.47a1.52,1.52,0,0,1-1.3,1.45,6.28,6.28,0,0,1-7.95-5.67c-.33-4.57.09-9.16-.85-13.7s-1.65-9.09-2.5-13.63a8.83,8.83,0,0,0-1.11-2.88,13.15,13.15,0,0,1-1.75-6.63,6.38,6.38,0,0,1,4.12-5.53,3.48,3.48,0,0,1,4.36,1.41c2.16,2.78,2.76,6.06,3,9.42.39,5.19,1.66,10.21,2.76,15.27a60.41,60.41,0,0,0,2,8.11A7.67,7.67,0,0,1,445.53,131Z"/><path class="cls-1" d="M284.72,76.61v.24c-.13,2.53-.86,5-3.29,6a6.54,6.54,0,0,1-6.75-1.26,6.3,6.3,0,0,1-2.21-6.88c.23-.84.67-1.63.84-2.49.73-3.63,6.45-4.88,8.89-1.85A9.61,9.61,0,0,1,284.72,76.61Z"/><path class="cls-2" d="M250.63,79.5a8.78,8.78,0,0,1,1.93-5.76,4.62,4.62,0,0,1,8,1.4,26,26,0,0,1,.9,5.38,3.64,3.64,0,0,1-1.07,2.59c-1.58,2-3.93,2.43-6.51,1.61C251.53,84,250.63,82.37,250.63,79.5Z"/><path class="cls-3" d="M65.79,122.54a1.07,1.07,0,0,1-1.44.36,3.68,3.68,0,0,1,.89-2,1,1,0,0,1,.48.4A3.52,3.52,0,0,1,65.79,122.54Z"/><path class="cls-4" d="M66.3,119.09c.33-.61.61-1.28,1.38-1.48l.25.23a1.39,1.39,0,0,1-.59,1.79,1,1,0,0,1-.67,0A1.34,1.34,0,0,1,66.3,119.09Z"/><path class="cls-5" d="M364.3,98.87a1.24,1.24,0,0,1,.85-1.06,1.4,1.4,0,0,1-.24,1.7Z"/><path class="cls-6" d="M68.67,116.66c-.16-.73.27-1.14.83-1.47A.94.94,0,0,1,70,115a.56.56,0,0,1,.29.44A1.14,1.14,0,0,1,70,116c-.34.31-.5.85-1.1.83Z"/><path class="cls-7" d="M65.36,120.52a1.27,1.27,0,0,1,.62-1,.39.39,0,0,1,.56,0l.22,0c.33.8-.1,1.25-.74,1.6C65.6,121.14,65.49,120.82,65.36,120.52Z"/><path class="cls-8" d="M72.07,111.41c.19-.44.32-.93.91-1l.2.25a.75.75,0,0,1-.54,1A.8.8,0,0,1,72.07,111.41Z"/><path class="cls-9" d="M142.06,181.43c.2-.22.46-.43.71-.19s0,.52-.15.73Z"/><path class="cls-10" d="M72.07,111.41a1.2,1.2,0,0,0,.38,0,.65.65,0,0,1,0,1l0-.07a.33.33,0,0,1-.51,0h-.48Z"/><path class="cls-9" d="M329.42,108.09a.4.4,0,0,1,.4-.38c.06,0,.11.08.17.12l-.32.19-.11.09Z"/><path class="cls-11" d="M65.36,120.52l.44.51a.45.45,0,0,1,0,.46.6.6,0,0,1-.44.18l-.11-.78A.49.49,0,0,1,65.36,120.52Z"/><path class="cls-11" d="M66.54,119.49H66c.11-.14.22-.27.32-.41Z"/><path class="cls-1" d="M73,110.4c0-.3.13-.51.48-.45l0,0a.32.32,0,0,1,.11.32c0,.12,0,.17-.08.17a.32.32,0,0,1-.48,0Z"/><path class="cls-11" d="M70,115.18H69.5a.63.63,0,0,1,.5-.52l.07,0c.11.12.14.23.08.33S70,115.18,70,115.18Z"/><path class="cls-12" d="M67.68,117.61a.58.58,0,0,1,.4-.57l.19.24c-.11.29-.22.56-.6.29Z"/><path class="cls-12" d="M68.08,117c.1-.28.26-.45.59-.38l0,0c.16.44,0,.57-.45.5Z"/><path d="M115.72,148.81c-.13,1.79-.51,3.47-2.09,4.62-.24.18-.57.64-.51.75.86,1.42-.4,2.3-.71,3.45a6.26,6.26,0,0,0,1,5c1.89,2.88,6.13,3.69,9.24,2.09a4.7,4.7,0,0,0,2.6-3.54c.31-2.15,1.08-4.38-.27-6.52a3,3,0,0,1-.12-2.35c.73-2.78,1.37-5.57,2.37-8.28a6.4,6.4,0,0,1,3.88-3.91,75.75,75.75,0,0,1,14.68-4.28c5.62-1.11,11.11-.1,16.64.65a4,4,0,0,1,2.15,1c1.31,1.17,2.66,2.3,3.88,3.56a4.35,4.35,0,0,1,1.13,4.39,11.34,11.34,0,0,1-2.9,5.38,146.34,146.34,0,0,1-27.91,22.11c-5,3.14-10.47,5.48-15.8,8-4.1,2-8.18,3.94-12.67,5a45,45,0,0,1-14.49.71,58,58,0,0,0-6.44-.42,20.25,20.25,0,0,1-5-.67c-5.58-1.35-7.91-5.59-9.05-10.67-.91-4.1.24-8.06,1.32-12q1-3.81,2.19-7.59a10.42,10.42,0,0,1,.92-2.21c3.63-6.29,7-12.76,11-18.84a173.29,173.29,0,0,1,19.86-24.85c3-3.17,6.12-6.31,9.06-9.57a73,73,0,0,1,14.59-12,192.8,192.8,0,0,1,27.52-15c3.74-1.64,7.43-3.34,11.52-3.9,1.34-.19,2.69-.26,4-.33a1.77,1.77,0,0,1,1.84.9c.7,1.61,1.49,3.22,1.35,5a2.08,2.08,0,0,1-2,2.25,4.7,4.7,0,0,0-3.62,2.82,9.23,9.23,0,0,0-1.24,7.08c.57,2.21-.83,4-2.27,5.52a12.39,12.39,0,0,1-6.11,4,6.8,6.8,0,0,0-3.51,2.4,4.45,4.45,0,0,1-.61.74c-2.9,2.16-3.31,5.28-3.33,8.56a5.08,5.08,0,0,0,7.46,4.63c1.73-.87,2.79-2.64,4.57-3.44.07,0,.16-.13.15-.18-.63-2.36,2.16-3.12,2.38-5.08.81-.07.7.36.45.85-1.33,6.4-2.41,12.84-3.37,19.3,0,.32-.07.64-.13,1-.41,2.28-.9,2.63-3.26,2.23-1.57-.26-3.14-.56-4.69-.89a40.14,40.14,0,0,0-18.68.7c-3.16.81-6.32,1.6-9.61,2.42-.44-1.43.33-2.42,1-3.36,1.2-1.78,2.59-3.44,3.79-5.23a6.2,6.2,0,0,0-1.84-9.14c-2.42-1.62-4.68-1-6.17,1.46a18.4,18.4,0,0,0-2.16,6c-.44,2.27-1.9,4.2-2.82,6.32s-2,4-3,6a12.13,12.13,0,0,1-4.62,5.06c-2.33,1.39-4.64,2.81-7,4.21a27.84,27.84,0,0,0-6.4,4.59,4.16,4.16,0,0,1-1.86,1.05c-3,1-5.09,6.2-4.15,9a8,8,0,0,0,6,5,4.54,4.54,0,0,0,4.9-3,35.38,35.38,0,0,1,1.68-3.71,9.85,9.85,0,0,1,4.74-4.87A.32.32,0,0,1,115.72,148.81Z"/><path d="M238.08,161.29c.1-2.43-.68-4.89.43-7.3a3.45,3.45,0,0,1,1.17-1.65c2.24-1.56,2.65-3.34,1.52-5.82a9.05,9.05,0,0,0-2.91-3.75,1.64,1.64,0,0,1-.75-1.6,41.29,41.29,0,0,1,6.44-21,86.18,86.18,0,0,1,10.8-14c2.79-2.84,5.85-5.42,8.85-8,1.13-1,2.68-1.34,3.87-2.33a2.1,2.1,0,0,1,2.5,0c.88.65.56,1.59.25,2.42-.65,1.71-1.36,3.41-2.05,5.11a7.06,7.06,0,0,1-3.61,4.24c-2,.9-3.21,2.84-4.85,4.23a36.43,36.43,0,0,0-13.13,25.51,29.37,29.37,0,0,0,.49,9.71c1.28,5.32,4.49,9.29,8.38,12.83a18.94,18.94,0,0,1,2.12,2.27c.88,1.13,1.57,2.65,3,2.95,2.31.49,4.65,1.11,7.08.29a15.77,15.77,0,0,0,4.93-2.89,66.94,66.94,0,0,0,14.06-15.6,36.81,36.81,0,0,1,9.64-10.21,5.18,5.18,0,0,0,2.49-4.82c-.15-2.44-.81-4.74-2.91-6.3a4.58,4.58,0,0,0-5.35.53,11.76,11.76,0,0,0-4,5.57,22.2,22.2,0,0,1-3.42,6.56c-3.71,5.21-8,10-12.15,14.8-2.88,3.33-6.63,3.39-9.87.25a23.75,23.75,0,0,1-4.87-6.77,17,17,0,0,1-1.08-11c1.55-7.9,5.84-14.08,12.21-18.86a55.74,55.74,0,0,1,8-5.13c.91,2.24.63,4.49.39,6.62-.3,2.64,0,5.27-.29,7.89a3.63,3.63,0,0,0,.21,1.42,1.7,1.7,0,0,0,1.5,1.35c.93.08,1.24-.57,1.47-1.28a19.47,19.47,0,0,0,.42-8.52A26.8,26.8,0,0,1,279,112c.34-2.4.47-2.62,2.88-3.12a69.46,69.46,0,0,1,10.66-1.41A12.35,12.35,0,0,1,303.1,112c2.74,3.25,5.29,6.62,6.22,10.92a22.29,22.29,0,0,1,.19,7.15c-.34,3.09-.74,6.17-1.17,9.25-.65,4.71-2.44,9.09-4.25,13.43-3.8,9.13-9.77,16.82-16.51,23.92-3.22,3.39-7.34,5.63-11.27,8.08a53.18,53.18,0,0,1-10.58,5,24.84,24.84,0,0,1-8.92,1.44,8.67,8.67,0,0,1-6.48-2.59,47,47,0,0,1-7.48-9.9,2.58,2.58,0,0,1,.4-3.24c2.07-2.55,4.6-4.65,6.82-7.06a6,6,0,0,0,1.47-6.17,22.71,22.71,0,0,0-1.43-3.55c-.8-1.66-4-2.59-6.1-2a9.27,9.27,0,0,0-5.47,4.61C238.4,161.61,238.24,161.62,238.08,161.29Z"/><path d="M222.65,78.72a2.23,2.23,0,0,1-.37,1.92c-3.12,5-3.87,10.51-4.49,16.2-.79,7.24.3,14.32,1.3,21.42.5,3.55.68,7.13,1.1,10.69a38.69,38.69,0,0,0,2.47,10c.73,1.85.65,2-1.27,2.33-4.89.75-9.78,1.41-14.75.52-2.29-.41-4.62.17-6.91.35-2.84.22-2.52-.49-2.32-2.5a105.72,105.72,0,0,1,3.1-17.65,13.27,13.27,0,0,0,.38-1.63,18.73,18.73,0,0,1,2.9-7.77,6.86,6.86,0,0,0,0-7.7c-2.05-3.42-7.54-3.39-9.65,0a8.76,8.76,0,0,0-1.07,6.47,15.73,15.73,0,0,1,0,6.41,188.94,188.94,0,0,0-3.5,22.44,2.35,2.35,0,0,1-1.4,2.3c-2.7,1-3.73,3.25-4.19,5.83-.36,1.95-.53,2.27-2.4,2.79-.46.12-.93.23-1.4.31-.75.14-1.62.68-2.24-.05s.07-1.38.29-2a21.42,21.42,0,0,0,.79-11.31c-1.09-5.58-.81-11.22-.65-16.9.26-9,2.85-17.46,4.24-26.18.17-1,.2-2.3,1.53-2.78a.51.51,0,0,0,.28-.36c.25-2,1.77-2.07,3.3-2.29a111.75,111.75,0,0,0,23.26-6.42c3.06-1.16,6.11-2.35,9.17-3.51C220.91,79.31,221.72,79,222.65,78.72Z"/><path d="M222.88,149.84a8.71,8.71,0,0,1,2.78-.05c2.27.26,3.12,1.05,3.34,3.26.35,3.64.59,7.29,1,10.92.27,2.28.21,4.6.69,6.87.35,1.66,0,2.08-1.63,2.58-2.13.64-4.29,1.22-6.44,1.77-3.6.92-6.14-.16-8.11-3.34a15.64,15.64,0,0,1-2.26-11.22,62.72,62.72,0,0,0,.43-6.42c.19-2.87.76-3.61,3.69-3.88A39.37,39.37,0,0,1,222.88,149.84Z"/><path class="cls-13" d="M188.15,179.55c-4.6-2.45-7.64-5.89-10.32-9.7-.36-.52-.45-1,.21-1.4a11.75,11.75,0,0,0,4.15-5.43c1.09-2.49,3.49-3.33,5.94-4.82C189,165.41,188.48,172.3,188.15,179.55Z"/><path class="cls-14" d="M388.75,132.48c-7.5,2.28-14.47,6-22,8-.65-.7-.2-1.23-.19-1.75.1-3.74.19-4.18,4.86-4.9s9.44-1.38,14.19-1.83c1-.1,2.06,0,3.09,0Z"/><path class="cls-15" d="M169.42,163.59c-.79,0-1.59-.19-1.66-.8-.1-.85.75-1.24,1.51-1.78A4.06,4.06,0,0,1,169.42,163.59Z"/><path class="cls-16" d="M172.85,104.66l-.45-.85c0-.24,0-.49.27-.56s.42.11.46.35A1.24,1.24,0,0,1,172.85,104.66Z"/><path class="cls-17" d="M238.08,161.29a2.36,2.36,0,0,0,.46,0,1.18,1.18,0,0,1-.21,1A1.14,1.14,0,0,1,238.08,161.29Z"/><path class="cls-9" d="M115.72,148.81l-.54,0c.17-.26.41-.44.7-.28C116,148.59,115.91,148.77,115.72,148.81Z"/><path class="cls-18" d="M68.17,117.14c.31,0,.42-.23.45-.5l1.44-1a.51.51,0,0,1,.1.73c-.84,2.2-2.45,3.86-3.91,5.63L66,122a.42.42,0,0,1-.28-.3l0-.21a1.85,1.85,0,0,0,.07-.41l1-1.5c.43-.59,1-1.11.91-2A.42.42,0,0,0,68.17,117.14Z"/><path class="cls-19" d="M73.41,110.39v-.48c.86-.24,1-1.29,1.88-1.57.27.17.28.37,0,.59a6,6,0,0,1-1.43,2h-.2a.45.45,0,0,1-.29-.28Z"/><path class="cls-20" d="M73,110.36a1.63,1.63,0,0,0,.44,0,.89.89,0,0,1,.25.14l.13.13a.65.65,0,0,1,.13.23c-.42.55-.56,1.38-1.44,1.48l0-1A1,1,0,0,0,73,110.36Z"/><path class="cls-21" d="M70,115.18l.08-.47c.28-.07.73-.27.82-.17.41.47,0,.84-.28,1.19a.67.67,0,0,1-.42-.46Z"/><path class="cls-22" d="M65.35,121.67l.38-.23.21,0,0,.2.2,0a.39.39,0,0,1,.06.3l-.46.54C65.39,122.38,65.35,122,65.35,121.67Z"/><path class="cls-19" d="M75.45,108c.1-.38.32-.79.71-.63s.17.52-.19.67C75.76,108.43,75.59,108.42,75.45,108Z"/><path class="cls-19" d="M75.45,108l.52,0a1.12,1.12,0,0,1-.62.88c0-.2,0-.4,0-.59A.28.28,0,0,1,75.45,108Z"/><path class="cls-23" d="M70.19,115.27l.42.46-.45.64-.1-.73A.91.91,0,0,1,70.19,115.27Z"/><path d="M72,112.33l.51,0C72.39,112.81,72.21,112.66,72,112.33Z"/><path d="M66.19,121.7l-.19,0-.06-.19Z"/><path d="M73.79,110.66l-.14-.13Z"/></g></g></svg>