<svg xmlns="http://www.w3.org/2000/svg" viewBox="0 0 403.73 216.68"><g id="Layer_2" data-name="Layer 2"><g id="Layer_1-2" data-name="Layer 1"><path d="M286.17,52c-4.79,9.6-8.33,19.7-11.61,29.89a318.34,318.34,0,0,0-9.13,35.45c-.84,4.23-1.77,8.44-2.58,12.67-.34,1.79-.53,3.62-.73,5.44a5.19,5.19,0,0,1-4.64,4.7h-.24c-1.3,0-2.9.84-3.81-.47-1.18-1.7-2-3.59-1.23-5.85,1.24-3.54,2.38-7.12,3.49-10.7a7.21,7.21,0,0,0,.59-3,10.86,10.86,0,0,0-3.74,3.63c-4.73,6-11,9.9-17.52,13.53a57.33,57.33,0,0,1-16.94,6.46c-7.64,1.51-13.61-1.25-18.57-6.82a60.27,60.27,0,0,1-5.91-8.44,3.06,3.06,0,0,0-3.75-1.64c-1.22.31-2.53.24-3.56,1.19a2.6,2.6,0,0,1-1.57.5c-5.32.27-10.6,1.06-15.89-.69a11.35,11.35,0,0,1-8-8.4,14.11,14.11,0,0,0-1.19-3.62,2.91,2.91,0,0,1-.37-1.36c-.19-4.31-.76-8.6-.51-12.92,0-.32,0-.64,0-1,0-1.46-.72-2.82-1.55-3s-2.77,1-3.25,2.08a5.81,5.81,0,0,0-.37,2.34c0,6.32-.07,12.63-.16,19a39.54,39.54,0,0,0,1.66,12.28A8.79,8.79,0,0,1,155,139a3.06,3.06,0,0,1-2.57,2.18c-3.33.6-6.5.08-8.2-3-3.16-5.77-8.4-9.31-13.25-13.3-1.3-1.07-2.66-2-4-3.08a9.67,9.67,0,0,0-12.38-.12,26.09,26.09,0,0,0-9,15.17,5.3,5.3,0,0,1-5.77,4.46,7.28,7.28,0,0,1-6-5.2,7.92,7.92,0,0,1,3.72-8.3,2.88,2.88,0,0,0,1.72-1.84c.19-.57,0-.78-.56-.55-6.52,3.21-13,6.45-19.57,9.63a59.43,59.43,0,0,1-19.45,5.64c-3.35.37-6.7-.26-10-.5s-6.64-.86-10-1.24a15.67,15.67,0,0,1-11-6.48c-3.16-4.14-5.41-8.7-5.64-14a33.83,33.83,0,0,1,1.12-9A77.76,77.76,0,0,1,33,87.48c2.56-4.34,5-8.76,7.68-13A130.16,130.16,0,0,1,54.55,56.17c5-5.39,9.71-11,14.85-16.28A100,100,0,0,1,86.24,25.74a230,230,0,0,1,22.22-13.25c7.62-3.82,15.58-7,24.11-8.37a35.31,35.31,0,0,1,7.41,0,4.4,4.4,0,0,1,3.49,2.29,35.28,35.28,0,0,1,2.88,5.52,9,9,0,0,1,.41,6.53c-.51,1.37-.41,2.83-.76,4.23-.22.89.17,1.19,1.21,1.08a65,65,0,0,0,12.55-3C168.57,18,177,14.52,184.55,9a34.34,34.34,0,0,0,7-6.78c2.35-3,4.26-2.95,6.62,0,1,1.2,1.95,2.27,2,4a5.83,5.83,0,0,1-1.53,4.61c-1.17,1.2-2.26,2.47-3.34,3.75A67.9,67.9,0,0,0,184.2,33.21a23.07,23.07,0,0,0-1.46,8.21c0,1.35-.24,2.69-.3,4-.23,5.38.95,10.64,1.51,15.94.44,4.2,1.13,8.37,1.71,12.55a3.86,3.86,0,0,0,1,2.66,10.16,10.16,0,0,0,1.47-3.75,63.16,63.16,0,0,1,6.59-15.37,24.43,24.43,0,0,1,3.51-4.83,20.47,20.47,0,0,0,2.93-4.09,19,19,0,0,1,5-6,65,65,0,0,0,7.18-6.7,15,15,0,0,1,4.88-3.4A37.34,37.34,0,0,0,223.5,30a6.28,6.28,0,0,1,3-.7c1.11-.07,2.23-.2,3.33-.27,2.83-.17,4.9,1.42,6.27,3.68a11.16,11.16,0,0,1,1.19,8.77c-.43,1.7-.13,2.11,1.54,1.69a54.56,54.56,0,0,1,9.94-1.3c7.64-.46,13.36,2.84,18.06,8.53A49.63,49.63,0,0,1,272,58.47c.3.54.42,1.2,1,1.56.7-.12.77-.77.95-1.24,3.06-7.92,6.82-15.5,10.63-23.06a77.7,77.7,0,0,0,4.89-11.19c.8-2.46,2.17-3.38,5.26-2.51A6.36,6.36,0,0,1,299.11,30c-1.57,4.74-2.07,9.67-2.78,14.54s-1.46,9.91-2.58,14.82a146.78,146.78,0,0,0-2.46,18.23c-.12,1.17-.66,2.33-.26,3.56.84,0,1-.75,1.23-1.29,7.88-17.34,17.18-33.91,26.88-50.27,2-3.29,4-6.52,6.12-9.74,1.62-2.51,3.92-2.71,6.34-1a6.12,6.12,0,0,1,2.37,7c-1.87,7.11-2.8,14.42-4.8,21.49q-.92,3.23-1.77,6.47a1.48,1.48,0,0,0,.22,1.5c1.22-.88,2.45-1.74,3.65-2.63a104.3,104.3,0,0,1,19.16-11.77c4-1.81,8-3.5,12.07-5.26A11.92,11.92,0,0,0,366.66,33c1.44-1.54,3.54-1.71,5.5-2,.81-.14,1.28.49,1.68,1.13C375,33.87,375.2,36,375.6,38a1.73,1.73,0,0,1-.3,1.12,15,15,0,0,0-1.11,7.67c.24,3.07,1.08,6.16.23,9.27-.16.62-.31,1.24-.51,1.84s-.5,1.28-1.26,1.25a1.67,1.67,0,0,1-1.54-1.32,8.53,8.53,0,0,1-.18-2.14c0-3.76.11-7.51.14-11.27a3.79,3.79,0,0,0-.34-2.4c-16.89,4.83-31.3,13.86-44,25.87.52.68,1.09.43,1.61.38,5.48-.48,10.94-1.21,16.43-1.39,7.59-.25,15.19-.06,22.79-.09,4.14,0,8.28.21,12.32-1.16,3.06-1,4.18-.41,5.8,2.52a8.72,8.72,0,0,1,1.24,5,5,5,0,0,1-4.6,4.72c-9.29.18-18.06,3-27,5.07-5.77,1.35-11.44,2.92-16.71,5.75-3,1.58-5.67,3.58-8.57,5.27-1.82,1.07-1.88,1.4-.88,3.23a51.59,51.59,0,0,0,6.71,9.61A55.8,55.8,0,0,0,349.24,118a26.81,26.81,0,0,0,18.85,3.66c5.61-1,11.13-2.18,16-5.25,2.83-1.76,5.22-3.92,6.32-7.25.85-2.58,0-4.31-2.71-5q-3-.69-6.11-1.15a53.8,53.8,0,0,0-17.13.18,10.07,10.07,0,0,0-4.57,2,16.63,16.63,0,0,1-3.29,2,5.17,5.17,0,0,1-7.25-4.93c.05-.8.09-1.59.08-2.39,0-4.8,3.6-6.28,6.74-6a51.78,51.78,0,0,0,10.72-.37,86.41,86.41,0,0,1,19.09.42A20.55,20.55,0,0,1,393,95.68a12.6,12.6,0,0,1,7,8.62,8.28,8.28,0,0,1-.77,5.8,48.29,48.29,0,0,1-5.64,9.17,24.43,24.43,0,0,1-9.44,7.18,55.24,55.24,0,0,1-16,4.63c-9.69,1.12-18.27-1.64-26.27-6.94a62.72,62.72,0,0,1-13.54-12.78c-1.61-1.94-3.26-3.85-4.85-5.72-.45.21-.47.45-.46.68a80,80,0,0,0,1.32,11.87,7.5,7.5,0,0,0,.92,2.45,5.09,5.09,0,0,1-1.25,6.8c-.63.49-1.31.92-1.9,1.45a2.8,2.8,0,0,1-2.69.68c-3.21-1-6.36-.07-9.49.31-4.2.5-8.41.79-12.61,1.15a30.73,30.73,0,0,0-8.44,1.54,29.1,29.1,0,0,0-6,2.52c-3,1.94-7.75.67-8.72-4.93a13.71,13.71,0,0,1,.44-5.69c.07-.3.19-.7.41-.82,2-1.06,3.95-2.61,6.46-1.52a13.5,13.5,0,0,0,7.06.75c4.51-.53,9.06-.6,13.59-.95a67.31,67.31,0,0,0,10.39-1.55c2.67-.65,3.24-1.38,3-4-1.09-10.93-.54-21.88-.45-32.82,0-.48,0-1,0-1.44,0-.88-.26-1.21-1.27-1.22A5.65,5.65,0,0,1,308,76.69,7.88,7.88,0,0,1,310.31,68c1.57-1.38,2.84-3.21,5.07-3.84a3.5,3.5,0,0,0,2.15-2.74c1.43-6,3-11.9,4.14-18,.12-.52,0-.83-.61-.63-2.33,3.07-3.88,6.58-5.69,10-4.86,9.06-9.66,18.17-14.29,27.36-3.19,6.33-6.05,12.83-9,19.27a11.9,11.9,0,0,0-1.28,6.26c.4,4.07-5.06,7.43-9.14,6.13a3.08,3.08,0,0,1-2-1.6c-.92-2-1.58-4-.65-6.39a55.19,55.19,0,0,0,3.33-15.85,267.54,267.54,0,0,1,4.08-33.14,5.3,5.3,0,0,0,.06-2.85C286.29,51.77,286.2,51.79,286.17,52ZM200.94,172.57a1.82,1.82,0,0,1,2.11-1.69c5.83.05,11.63-.45,17.45-.74,6.77-.32,13.49-1.16,20.24-1.75,5.16-.46,10.32-.91,15.48-1.1,6.3-.22,12.6-.71,18.91-.56a13.72,13.72,0,0,0,1.92-.09,192.69,192.69,0,0,1,25.3-1.35c.8,0,1.6-.11,2.39-.12,4.15,0,8.32-.28,12.42.55,2.5.51,5.16.31,7.48,1.51,1.89,1,3.85.88,5.83.79a5.24,5.24,0,0,0,4-2.27c1.16-1.54,1.31-3.34,1.58-5.18.36-2.4-1-4-2.08-5.83a2,2,0,0,0-1.62-.93c-1.81-.1-3.62-.46-5.44.23a21.71,21.71,0,0,1-7.52,1.2c-6.55.08-13.09-.05-19.64.21-8.45.34-16.92.17-25.35,1-4.21.43-8.45.06-12.68.43-6.35.55-12.73.65-19.09,1.14-7.62.58-15.22,1.46-22.86,1.87-4.54.25-9.06.63-13.59,1-3.64.31-7.13-.46-10.66-1.17-6-1.2-8.62,2.43-8.87,7.23-.16,2.91,2,5.62,5.89,5.49,2.39-.08,2.63,0,3,2.24a24.68,24.68,0,0,1,.5,7.61,37.64,37.64,0,0,0-.23,3.82c-.17,5.18,0,10.37-.45,15.55a14.9,14.9,0,0,0,.71,6.38c.37,1,1,2,2.11,2s1.29-1.21,1.56-2.11a31.21,31.21,0,0,0,1.17-8.26c.17-6.07-.85-12.09-.9-18.15A50.76,50.76,0,0,1,200.94,172.57Zm60.67,14.09c5.5.22,11,.9,16.45,1.15a2.17,2.17,0,0,1,2.27,1.65,13.22,13.22,0,0,1,.49,1.59,40.59,40.59,0,0,1,.19,9.54q-.36,6.21-.28,12.44a4.67,4.67,0,0,0,1,2.89,1.72,1.72,0,0,0,3-.37,12.71,12.71,0,0,0,.74-2.26,32.33,32.33,0,0,0,.27-10.48c-.38-4-1.12-8.06-.35-12.13.39-2,.42-2.13,2.46-2,4.12.34,8.24.77,12.38,1.05,3.74.26,7.24,1,10,3.86a3.91,3.91,0,0,0,.78.55c2.42,1.42,7.27.5,8.77-1.66,3.13-4.51,3-8.13-.32-12.51a5.62,5.62,0,0,0-3.58-2.17,22.51,22.51,0,0,0-2.86-.22,2.87,2.87,0,0,0-2.75,1.13c-.79,1.11-1.9,1.24-3.16,1.29a71.31,71.31,0,0,1-7.87-.45c-7.62-.61-15.24-1.28-22.86-1.91-2.77-.23-5.56-.34-8.34-.61q-8.79-.87-17.63-1.18a14.49,14.49,0,0,1-5.83-1.09c-2.62-1.23-4.81-1.26-6.92,1.32s-2.67,5.52-.74,8.54c1.72,2.7,4.2,3.46,7.51,2.22a9.56,9.56,0,0,1,3.74-.63c1.68,0,3.36,0,5.56,0C256,186.49,258.83,186.55,261.61,186.66ZM5.2,63.33c1.06.32,1.27.81.5,1.69-1.14,1.33-2.05,3-3.41,4A5.73,5.73,0,0,0,.05,74.7,6.29,6.29,0,0,0,5.2,80.26c2.63.42,4.48-.7,5.81-3.56a17.79,17.79,0,0,0,.85-2.24,23.06,23.06,0,0,1,1.68-4c1.24-2.32,2.57-4.61,3.7-7a63,63,0,0,1,6.53-10.6c1.95-2.62,3.87-5.29,5.63-8a43.29,43.29,0,0,1,7.74-8.79,20,20,0,0,0,4.37-5.64,7.33,7.33,0,0,0,.07-6.7c-1-2.19-2.57-2.86-4.88-2.21-.6.16-1.29.78-1.79.35-.79-.7-1.12-.12-1.48.32-1.26,1.55-2.6,3-3.72,4.68a126.74,126.74,0,0,1-8.48,11.61A9.68,9.68,0,0,0,19,43.17a12.2,12.2,0,0,1-2.11,5c-.75,1.13-1.46,2.27-2.16,3.43-2.51,4.14-5.43,7.91-9.83,10.26a1.31,1.31,0,0,0-.85,1A8.59,8.59,0,0,0,5.2,63.33Zm21.61-4.45a1.11,1.11,0,0,1-.12.56,3.86,3.86,0,0,0-.52.75,12.47,12.47,0,0,1-3.44,4.6,1.85,1.85,0,0,1-.51.37,4.91,4.91,0,0,0-.57.25c-.41,1-1.15,1.9-1.16,2.86a6.89,6.89,0,0,1-1.65,4.12c-1.53,2.06-2.66,4.36-4.13,6.44a37.16,37.16,0,0,1-3.33,4.07,24.78,24.78,0,0,1-5.87,4.35C6.09,88.27,7.38,88,8,89a34.26,34.26,0,0,1-4.13,4.84,5.88,5.88,0,0,0-2,6.61,6.55,6.55,0,0,0,5.69,4.77c2.14.12,4.15-1.38,5.2-3.91.15-.36.22-.76.37-1.13a42.25,42.25,0,0,1,2.06-4.85c1.42-2.59,2.83-5.19,4.13-7.84a52.78,52.78,0,0,1,5.51-9q3.43-4.47,6.48-9.22a40.41,40.41,0,0,1,7.62-8.57,19.15,19.15,0,0,0,4.22-5.46,7,7,0,0,0,0-6.86c-1.08-2.15-2.39-2.72-4.7-2.08-.6.17-1.39.73-1.77.36-.75-.73-1.06-.3-1.5.2s-1.21,1.27-1.73,2c-1.18,1.57-2.59,3-3.16,5l.26.11c.31,0,.5-.23.74-.44l.08-.08s0,0,0,0-.08.08-.07.06a12.86,12.86,0,0,1-.88,1,7.41,7.41,0,0,0-1,1,3,3,0,0,1-.33.38,1.44,1.44,0,0,1-.4.23.49.49,0,0,0-.37.24,6.5,6.5,0,0,0-1.54,2.33C26.78,58.69,26.79,58.78,26.81,58.88ZM403.27,76.25A57.25,57.25,0,0,1,400.05,65C399,60,397.71,54.92,397.29,49.74c-.27-3.36-.81-6.64-3-9.44-1.29-1.68-2.55-2.13-4.57-1.44a6.42,6.42,0,0,0-4,5.65,12.94,12.94,0,0,0,1.71,6.4,9,9,0,0,1,1.13,2.87c.85,4.46,1.54,8.95,2.48,13.39s.57,9.14.85,13.71a6.45,6.45,0,0,0,3.27,5.47c2,1.24,4.32.92,6.42-.15,1.84-.94,2.12-2.66,2.06-4.5,0-.4,0-.8,0-1.2A10.69,10.69,0,0,0,403.27,76.25ZM240.41,24.64c2-3.36,1.1-7.72-1.8-10.74-2.39-2.5-7.85-1.25-8.45,2a6,6,0,0,1-.55,1.59c-2.14,4.24,1,9.81,6.85,9.56C238.32,27.3,239.5,26.16,240.41,24.64Zm-29.57,4.08c2.75.71,4.82.31,6.45-1.84a3.46,3.46,0,0,0,1-2.39,21.61,21.61,0,0,0-.94-5.62,4.64,4.64,0,0,0-8.1-1.05,8.35,8.35,0,0,0-1.81,4.86C207.38,26.32,208.38,28.08,210.84,28.72ZM23.38,63.57a1.08,1.08,0,0,0,.64,0c.65-.59,1.34-1.16.95-2.2a.41.41,0,0,0-.56.11c-.75.22-1,.87-1.36,1.48A1.66,1.66,0,0,0,23.38,63.57Zm-.63,1.48c.67-.33,1.09-.79.78-1.6l-.23,0a.38.38,0,0,0-.56,0,1.4,1.4,0,0,0-.65,1C22.18,64.77,22.35,65,22.75,65.05Zm2.93-4.34c.6,0,.76-.51,1.1-.83a1.09,1.09,0,0,0,.29-.48.56.56,0,0,0-.29-.45,1,1,0,0,0-.53.16c-.55.34-1,.74-.83,1.48Zm296-17.28a1.39,1.39,0,0,0,.24-1.7,1.24,1.24,0,0,0-.85,1.07Zm-300,22,.38.43a.45.45,0,0,0,.5.14.92.92,0,0,0,.29-.48.79.79,0,0,0-.24-.5l-.49-.58ZM99.38,125.9c.2-.22.4-.5.15-.74s-.51,0-.71.19Zm-70-70.35a.73.73,0,0,0,.53-1l-.2-.25c-.58.08-.72.57-.9,1A.76.76,0,0,0,29.4,55.55Zm-1.1.71h.24l.24,0a.33.33,0,0,0,.51,0l-.06.07a.66.66,0,0,0,0-1,1,1,0,0,1-.38,0Zm258-4.23.11-.09.31-.19c-.05,0-.11-.12-.16-.11a.39.39,0,0,0-.41.38ZM26.91,59c.06-.1,0-.21-.09-.34l-.06,0a.65.65,0,0,0-.51.52h.5C26.8,59.1,26.85,59.06,26.91,59ZM25,61.19c.32-.1.54-.25.34-.63l0,0a.47.47,0,0,0-.59.38ZM25,61.07l-.12-.1a.62.62,0,0,0-.42.56,1,1,0,0,1,.42,0C25,61.4,25.06,61.26,25,61.07ZM23.05,63l-.31.41h.56Zm6.67-8.73a.31.31,0,0,0,.48,0s.06,0,.09-.17a.33.33,0,0,0-.12-.32l0,0c-.36,0-.46.15-.49.45ZM71.94,92.71a9.87,9.87,0,0,0-4.75,4.87,37.49,37.49,0,0,0-1.67,3.71,4.54,4.54,0,0,1-4.9,3,8.06,8.06,0,0,1-6-5c-.94-2.85,1.16-8,4.16-9.06a4.29,4.29,0,0,0,1.86-1,27.32,27.32,0,0,1,6.39-4.6c2.32-1.4,4.63-2.82,7-4.21a11.92,11.92,0,0,0,4.61-5.06c1-2,2.09-4,3-6s2.38-4,2.81-6.31a18,18,0,0,1,2.17-6c1.48-2.5,3.75-3.09,6.17-1.47a6.21,6.21,0,0,1,1.84,9.14c-1.19,1.79-2.59,3.44-3.79,5.23-.63.94-1.4,1.93-1,3.31a17.45,17.45,0,0,0,2-.38c3.2-1,6.46-1.76,9.74-2.43a35.34,35.34,0,0,1,10.18-1.09A88.61,88.61,0,0,1,122.61,71c2.6.55,3.1.15,3.52-2.43,0-.23.07-.47.11-.71,1-6.46,2-12.9,3.37-19.3.24-.49.36-.92-.45-.85-.22,2-3,2.72-2.38,5.08,0,0-.08.15-.15.18-1.78.81-2.84,2.57-4.57,3.44a5.07,5.07,0,0,1-7.46-4.62c0-3.28.42-6.4,3.33-8.56a5.53,5.53,0,0,0,.6-.74,6.8,6.8,0,0,1,3.51-2.4,12.46,12.46,0,0,0,6.11-4c1.45-1.52,2.85-3.31,2.28-5.52-.68-2.65,0-4.84,1.23-7.09a4.72,4.72,0,0,1,3.62-2.82,2.09,2.09,0,0,0,2-2.24,10.61,10.61,0,0,0-1.35-5,1.76,1.76,0,0,0-1.83-.91c-1.35.07-2.71.14-4,.33-4.09.56-7.78,2.26-11.52,3.9A192.8,192.8,0,0,0,91,31.74a73.3,73.3,0,0,0-14.59,12c-3,3.26-6,6.4-9.06,9.57A173.29,173.29,0,0,0,47.5,78.14c-4,6.08-7.33,12.55-11,18.84a10.94,10.94,0,0,0-.91,2.21c-.79,2.6-1.59,5.19-2.27,7.81-1,3.85-2.15,7.74-1.24,11.76,1.15,5.08,3.47,9.32,9,10.67a20.17,20.17,0,0,0,5,.67,57.86,57.86,0,0,1,6.44.42,45,45,0,0,0,14.49-.71c4.49-1,8.58-3,12.68-5,5.33-2.55,10.77-4.89,15.79-8A146.09,146.09,0,0,0,123.44,94.7a11.43,11.43,0,0,0,2.9-5.38,4.35,4.35,0,0,0-1.13-4.39c-1.22-1.25-2.57-2.39-3.88-3.56a4.15,4.15,0,0,0-2.16-1c-5.52-.75-11-1.75-16.64-.65a76.27,76.27,0,0,0-14.9,4.37,6,6,0,0,0-3.56,3.61,78.58,78.58,0,0,0-2.46,8.5,3,3,0,0,0,.12,2.35c1.38,2.22.56,4.52.21,6.75a4.63,4.63,0,0,1-2.33,3.21c-3,1.75-7.51,1-9.45-2a6.29,6.29,0,0,1-1-5c.32-1.14,1.58-2,.72-3.45-.07-.11.27-.57.51-.75,1.57-1.15,2-2.83,2.09-4.62A.32.32,0,0,0,71.94,92.71ZM195.3,105.2a9.24,9.24,0,0,1,5.47-4.61c2.11-.59,5.29.33,6.1,2a24,24,0,0,1,1.43,3.54,6.08,6.08,0,0,1-1.47,6.19c-2.14,2.36-4.61,4.4-6.67,6.86a2.8,2.8,0,0,0-.45,3.64,49.78,49.78,0,0,0,7.37,9.69,8.73,8.73,0,0,0,6.49,2.59,24.88,24.88,0,0,0,8.92-1.44,53.71,53.71,0,0,0,10.58-5c3.93-2.45,8.05-4.69,11.26-8.08,6.75-7.1,12.71-14.79,16.52-23.92,1.84-4.41,3.62-8.88,4.31-13.66.42-2.92.8-5.84,1.1-8.77a23.56,23.56,0,0,0-.18-7.4c-.94-4.29-3.48-7.67-6.23-10.91a12.31,12.31,0,0,0-10.61-4.52,70.58,70.58,0,0,0-10.65,1.41c-2.41.51-2.54.72-2.88,3.13a26.73,26.73,0,0,0,.16,6.92,19.51,19.51,0,0,1-.42,8.53c-.23.71-.55,1.35-1.48,1.28a1.7,1.7,0,0,1-1.49-1.36,3.41,3.41,0,0,1-.21-1.41c.26-2.63,0-5.26.29-7.89.24-2.13.51-4.38-.39-6.63a55.5,55.5,0,0,0-8,5.13c-6.38,4.79-10.66,11-12.21,18.87a17,17,0,0,0,1.07,11,23.7,23.7,0,0,0,4.88,6.77c3.24,3.14,7,3.08,9.87-.25,4.17-4.83,8.44-9.59,12.15-14.81a22,22,0,0,0,3.42-6.55,11.65,11.65,0,0,1,4-5.57,4.58,4.58,0,0,1,5.35-.53c2.1,1.56,2.76,3.86,2.91,6.3a5.16,5.16,0,0,1-2.5,4.82,36.81,36.81,0,0,0-9.63,10.22,67.39,67.39,0,0,1-14.07,15.6,16,16,0,0,1-4.92,2.89c-2.43.81-4.77.19-7.08-.29-1.44-.31-2.13-1.83-3-3a18,18,0,0,0-2.11-2.26c-3.89-3.55-7.11-7.51-8.39-12.83a29.42,29.42,0,0,1-.48-9.72,36.39,36.39,0,0,1,13.12-25.5c1.64-1.4,2.88-3.33,4.85-4.24A7.08,7.08,0,0,0,225,47.19c.68-1.7,1.39-3.39,2-5.11.32-.82.64-1.77-.24-2.41a2.1,2.1,0,0,0-2.5,0c-1.19,1-2.74,1.33-3.87,2.33-3,2.64-6.07,5.21-8.85,8a85.63,85.63,0,0,0-10.8,14,41.29,41.29,0,0,0-6.44,21,1.64,1.64,0,0,0,.75,1.61,8.92,8.92,0,0,1,2.9,3.74c1.14,2.48.72,4.26-1.51,5.82a3.53,3.53,0,0,0-1.18,1.65c-1.1,2.41-.33,4.87-.42,7.3C195,105.54,195.15,105.53,195.3,105.2ZM172.07,25.41c-9,3.47-18.13,6.69-27.75,8.08-1.46.22-2.9.22-3.14,2.16a1.09,1.09,0,0,1-.62.68c-.79.35-.89,1-1,1.75-1.23,6.26-2.44,12.53-3.76,18.77-.69,3.23-.5,6.51-.77,9.76a44.52,44.52,0,0,0,.18,11.47c.39,2.19.71,4.41,1,6.62a18.76,18.76,0,0,1-1.34,8.91c-.66,1.72-.34,2.34,1.75,1.85.31-.07.61-.21.93-.25,2.12-.25,3.16-1.23,3.29-3.57a5.71,5.71,0,0,1,3.13-4.81c2-.84,2.34-2,2.49-3.79a170.39,170.39,0,0,1,3.07-19.84,19.86,19.86,0,0,0,.33-8.05A8.49,8.49,0,0,1,151,48.7c2.09-3.29,7.48-3.31,9.51,0a7.13,7.13,0,0,1-.07,8.13,15.89,15.89,0,0,0-2.59,6.62,21.39,21.39,0,0,1-.65,2.8,109.39,109.39,0,0,0-3,17.42c-.18,2-.43,2.54,2.21,2.39,2.38-.15,4.77-.78,7.15-.35,5,.9,9.85.2,14.74-.55,1.74-.27,1.86-.51,1.19-2.19A36.21,36.21,0,0,1,177,72.75c-.31-3.49-.68-7-1.11-10.45-.88-7.12-2.08-14.17-1.3-21.42.62-5.69,1.33-11.25,4.44-16.22a1.85,1.85,0,0,0,.3-2.05C176.82,23.56,174.45,24.5,172.07,25.41Zm-.35,90.94c1.43,2.16,3.51,3.59,6.27,3s5.37-1.43,8.08-2.09c1.31-.32,1.61-1.13,1.46-2.3-.14-1-.34-2-.44-3.06-.47-5.06-.89-10.13-1.38-15.19-.19-2-1.05-2.81-3.06-3a46,46,0,0,0-10.68.67c-1.77.26-2.4,1.16-2.47,3-.12,3.18-.31,6.35-.66,9.51C168.48,110.47,169.85,113.53,171.72,116.35Zm-33.13-8.71a9.24,9.24,0,0,1-3.47,4.48c-1.11.75-.81,1.3-.23,2.1a33.7,33.7,0,0,0,5.19,5.92,13.66,13.66,0,0,0,4.81,3.14,139.33,139.33,0,0,0,.11-21.14C142.22,103.61,139.69,104.75,138.59,107.64ZM345.41,75.87a25.24,25.24,0,0,0-2.61,0c-3.56.4-7.11.81-10.66,1.29-2.2.3-4.39.74-6.58,1.1a2.08,2.08,0,0,0-1.89,1.59,21.7,21.7,0,0,0-.44,4.64c7.81-2.12,14.81-5.79,22.3-8.12ZM124.52,106.66c.07.64.88.93,1.64.81A3.37,3.37,0,0,0,126,105C125.29,105.43,124.44,105.86,124.52,106.66Zm5.37-59.14c0-.24-.2-.43-.46-.35s-.3.32-.27.56l.45.85A1.24,1.24,0,0,0,129.89,47.52Zm65.2,58.72a1.21,1.21,0,0,0,.21-1,2.36,2.36,0,0,1-.46,0A1.14,1.14,0,0,0,195.09,106.24ZM72.64,92.44c-.29-.17-.53,0-.7.27l.54,0C72.67,92.69,72.77,92.51,72.64,92.44Zm-49.11-29-1,1.55a1.72,1.72,0,0,0,0,.39c.06.14.12.28.17.43l.22.06a20,20,0,0,0,3.91-5.59.51.51,0,0,0-.1-.73l-1.44,1c0,.27-.14.47-.43.51a.46.46,0,0,1-.12.42Zm6.66-8.93a.43.43,0,0,0,.28.28h.21a5.84,5.84,0,0,0,1.42-2c.24-.22.23-.42-.05-.59-.82.28-1,1.33-1.88,1.57v.48Zm-1,.77c0,.33,0,.67,0,1,.89-.1,1-.93,1.45-1.48a.79.79,0,0,0-.14-.23l-.13-.13a.72.72,0,0,0-.24-.14,1.71,1.71,0,0,1-.45,0A1,1,0,0,1,29.21,55.29ZM27,59.19a.64.64,0,0,0,.41.46c.31-.35.7-.72.29-1.18-.09-.11-.54.1-.83.16l-.07.47ZM32.73,52c.36-.15.48-.55.18-.67s-.61.24-.7.62C32.34,52.34,32.52,52.35,32.73,52Zm-5.91,7.58.1.73.44-.64L27,59.19A.78.78,0,0,0,26.82,59.56ZM23,65.88a.37.37,0,0,0-.1-.26.78.78,0,0,0-.49.23,1,1,0,0,0-.39,0C22.32,66.66,22.66,66.37,23,65.88Zm9-13.62c0,.2,0,.39.05.59a1.13,1.13,0,0,0,.63-.87l-.52,0A.3.3,0,0,0,32.05,52.26Zm-2.76,4-.51,0C29,56.59,29.14,56.72,29.29,56.22Zm-6.67,9.17c-.07.15-.14.31-.2.46l.49-.23Zm7.79-10.94.13.13Z"/></g></g></svg>