<svg xmlns="http://www.w3.org/2000/svg" viewBox="0 0 288.02 280.74"><defs><style>.cls-1{fill:#fcff7b;}.cls-2{font-size:72px;font-family:Kodchasan-Bold, Kodchasan;font-weight:700;}.cls-3{letter-spacing:0.1em;}.cls-4{font-size:26.1px;font-family:Kodchasan-Medium, Kodchasan;font-weight:500;}</style></defs><g id="Layer_2" data-name="Layer 2"><g id="Layer_1-2" data-name="Layer 1"><path class="cls-1" d="M265.62,150l-28.13,67a39.37,39.37,0,0,1-21.41,21.2l-67.31,27.5a39.34,39.34,0,0,1-30.1-.15L51.62,237.49a39.34,39.34,0,0,1-21.2-21.41L2.92,148.77a39.34,39.34,0,0,1,.15-30.1L31.2,51.62a39.35,39.35,0,0,1,21.4-21.2l67.32-27.5a39.34,39.34,0,0,1,30.1.15l67,28.13a39.38,39.38,0,0,1,21.2,21.4l27.49,67.31A39.32,39.32,0,0,1,265.62,150Z"/><text class="cls-2" transform="translate(37.29 113.46)"><tspan class="cls-3">EL</tspan><tspan x="0" y="86.4">NLSN</tspan></text><text class="cls-4" transform="translate(146.47 72.05) rotate(-3.9)">d</text><text class="cls-4" transform="matrix(0.98, 0.2, -0.2, 0.98, 163.86, 70.95)">e</text><text class="cls-4" transform="translate(179.84 74.31) rotate(25.1)">s</text><text class="cls-4" transform="matrix(0.81, 0.58, -0.58, 0.81, 192.76, 80.73)">i</text><text class="cls-4" transform="translate(199.03 84.57) rotate(46.28)">g</text><text class="cls-4" transform="translate(210.94 97.16) rotate(61.46)">n</text><text class="cls-4" transform="translate(218.53 111.46) rotate(75.1)">s</text></g></g></svg>