<svg xmlns="http://www.w3.org/2000/svg" viewBox="0 0 112.64 112.62"><defs><style>.cls-1{fill:#fff;}</style></defs><g id="Layer_2" data-name="Layer 2"><g id="Layer_1-2" data-name="Layer 1"><g id="Group_116" data-name="Group 116"><g id="Group_169" data-name="Group 169"><path id="Path_447" data-name="Path 447" class="cls-1" d="M111.36,62.89,99.57,91a16.5,16.5,0,0,1-9,8.88L62.38,111.39a16.55,16.55,0,0,1-12.63-.06L21.64,99.57a16.52,16.52,0,0,1-8.88-9L1.23,62.37a16.43,16.43,0,0,1,.06-12.62L13.08,21.64a16.51,16.51,0,0,1,9-8.89L50.28,1.22a16.48,16.48,0,0,1,12.62.07L91,13.08a16.49,16.49,0,0,1,8.89,9l11.53,28.22A16.52,16.52,0,0,1,111.36,62.89Z"/><g id="Icon_call_outline" data-name="Icon call outline"><g id="Icon_call_outline-2" data-name="Icon call outline-2"><path id="Shape" d="M65.64,76.81a19.5,19.5,0,0,1-8.91-1.66c-3.06-1.43-6.4-4-10.81-8.46-4.16-4.18-6.93-7.92-8.47-11.43a19.73,19.73,0,0,1-1.63-8.33,11.92,11.92,0,0,1,.9-4.83,15,15,0,0,1,3.36-4.67,5.87,5.87,0,0,1,4.17-1.62h.26a6.42,6.42,0,0,1,4.27,1.77l4.4,4.21,0,0a6.48,6.48,0,0,1,0,8.75l-2.14,2.15a13.26,13.26,0,0,0,3.38,5.39,12.94,12.94,0,0,0,5.41,3.43L62,59.39a6.49,6.49,0,0,1,8.75,0l4.38,4.4a6.49,6.49,0,0,1,0,8.75A14.67,14.67,0,0,1,65.64,76.81ZM44.25,39.91a1.82,1.82,0,0,0-1.27.41,11.1,11.1,0,0,0-2.49,3.39,7.72,7.72,0,0,0-.57,3.22,15.54,15.54,0,0,0,1.29,6.69c1.33,3,3.82,6.37,7.62,10.17,4.05,4.06,7,6.42,9.64,7.65a15.62,15.62,0,0,0,7.17,1.27,10.78,10.78,0,0,0,6.58-3.06,2.43,2.43,0,0,0,0-3l-4.38-4.4a2.45,2.45,0,0,0-3,0L62,65.22a2,2,0,0,1-1.74.58,16.07,16.07,0,0,1-8.7-4.8,16.19,16.19,0,0,1-4.73-8.65,2.08,2.08,0,0,1,.58-1.74l2.92-2.93a2.1,2.1,0,0,0,.5-1.48,2.12,2.12,0,0,0-.48-1.47l-4.39-4.21,0,0a2.33,2.33,0,0,0-1.53-.58Z"/></g></g></g></g></g></g></svg>