<svg xmlns="http://www.w3.org/2000/svg" viewBox="0 0 112.64 112.62"><defs><style>.cls-1{fill:#fff;}</style></defs><g id="Layer_2" data-name="Layer 2"><g id="Layer_1-2" data-name="Layer 1"><g id="Group_115" data-name="Group 115"><g id="Group_170" data-name="Group 170"><path id="Path_449" data-name="Path 449" class="cls-1" d="M111.36,62.89,99.57,91a16.5,16.5,0,0,1-9,8.88L62.38,111.39a16.55,16.55,0,0,1-12.63-.06L21.64,99.57a16.52,16.52,0,0,1-8.88-9L1.23,62.37a16.43,16.43,0,0,1,.06-12.62L13.08,21.64a16.51,16.51,0,0,1,9-8.89L50.28,1.22a16.48,16.48,0,0,1,12.62.07L91,13.08a16.49,16.49,0,0,1,8.89,9l11.53,28.22A16.52,16.52,0,0,1,111.36,62.89Z"/><g id="Icon_mail_outline" data-name="Icon mail outline"><g id="Icon_mail_outline-2" data-name="Icon mail outline-2"><path id="Shape" d="M70.67,70.81H42a6.21,6.21,0,0,1-6.15-6.22V48A6.19,6.19,0,0,1,42,41.81h28.7A6.18,6.18,0,0,1,76.82,48V64.59A6.19,6.19,0,0,1,70.67,70.81ZM39.92,48.39v16.2a2.06,2.06,0,0,0,2,2.07h28.7a2.05,2.05,0,0,0,2-2.07V48.39L56.32,58.75ZM43.79,46l12.53,7.92L68.86,46Z"/></g></g></g></g></g></g></svg>